G04 #@! TF.GenerationSoftware,KiCad,Pcbnew,8.0.6*
G04 #@! TF.CreationDate,2025-01-23T20:00:50-06:00*
G04 #@! TF.ProjectId,PD_Board,50445f42-6f61-4726-942e-6b696361645f,rev?*
G04 #@! TF.SameCoordinates,Original*
G04 #@! TF.FileFunction,Copper,L2,Bot*
G04 #@! TF.FilePolarity,Positive*
%FSLAX46Y46*%
G04 Gerber Fmt 4.6, Leading zero omitted, Abs format (unit mm)*
G04 Created by KiCad (PCBNEW 8.0.6) date 2025-01-23 20:00:50*
%MOMM*%
%LPD*%
G01*
G04 APERTURE LIST*
G04 Aperture macros list*
%AMRoundRect*
0 Rectangle with rounded corners*
0 $1 Rounding radius*
0 $2 $3 $4 $5 $6 $7 $8 $9 X,Y pos of 4 corners*
0 Add a 4 corners polygon primitive as box body*
4,1,4,$2,$3,$4,$5,$6,$7,$8,$9,$2,$3,0*
0 Add four circle primitives for the rounded corners*
1,1,$1+$1,$2,$3*
1,1,$1+$1,$4,$5*
1,1,$1+$1,$6,$7*
1,1,$1+$1,$8,$9*
0 Add four rect primitives between the rounded corners*
20,1,$1+$1,$2,$3,$4,$5,0*
20,1,$1+$1,$4,$5,$6,$7,0*
20,1,$1+$1,$6,$7,$8,$9,0*
20,1,$1+$1,$8,$9,$2,$3,0*%
G04 Aperture macros list end*
G04 #@! TA.AperFunction,ComponentPad*
%ADD10RoundRect,0.250000X-2.250000X-1.250000X2.250000X-1.250000X2.250000X1.250000X-2.250000X1.250000X0*%
G04 #@! TD*
G04 #@! TA.AperFunction,ComponentPad*
%ADD11C,6.400000*%
G04 #@! TD*
G04 #@! TA.AperFunction,ComponentPad*
%ADD12RoundRect,0.250000X-1.250000X2.250000X-1.250000X-2.250000X1.250000X-2.250000X1.250000X2.250000X0*%
G04 #@! TD*
G04 #@! TA.AperFunction,ComponentPad*
%ADD13RoundRect,0.750000X0.750000X-1.750000X0.750000X1.750000X-0.750000X1.750000X-0.750000X-1.750000X0*%
G04 #@! TD*
G04 #@! TA.AperFunction,ViaPad*
%ADD14C,0.600000*%
G04 #@! TD*
G04 APERTURE END LIST*
D10*
X185750000Y-114750000D03*
X185750000Y-118250000D03*
X185750000Y-121750000D03*
X104500000Y-114500000D03*
X104500000Y-118000000D03*
X104500000Y-121500000D03*
D11*
X114000000Y-112500000D03*
X175000000Y-115250000D03*
D12*
X103000000Y-84000000D03*
X106500000Y-84000000D03*
X110000000Y-84000000D03*
D13*
X177750000Y-106500000D03*
X182750000Y-106500000D03*
D14*
X167370000Y-121000000D03*
G04 #@! TA.AperFunction,Conductor*
G36*
X112699510Y-100039560D02*
G01*
X112719988Y-100115985D01*
X112759548Y-100184505D01*
X112815495Y-100240452D01*
X112884015Y-100280012D01*
X112960440Y-100300490D01*
X113039560Y-100300490D01*
X189575510Y-100300490D01*
X189642549Y-100320175D01*
X189688304Y-100372979D01*
X189699510Y-100424490D01*
X189699510Y-124575510D01*
X189679825Y-124642549D01*
X189627021Y-124688304D01*
X189575510Y-124699510D01*
X100424490Y-124699510D01*
X100357451Y-124679825D01*
X100311696Y-124627021D01*
X100300490Y-124575510D01*
X100300490Y-120199983D01*
X101499500Y-120199983D01*
X101499500Y-122800001D01*
X101499501Y-122800018D01*
X101510000Y-122902796D01*
X101510001Y-122902799D01*
X101558780Y-123050001D01*
X101565186Y-123069334D01*
X101657288Y-123218656D01*
X101781344Y-123342712D01*
X101930666Y-123434814D01*
X102097203Y-123489999D01*
X102199991Y-123500500D01*
X106800008Y-123500499D01*
X106902797Y-123489999D01*
X107069334Y-123434814D01*
X107218656Y-123342712D01*
X107342712Y-123218656D01*
X107434814Y-123069334D01*
X107489999Y-122902797D01*
X107500500Y-122800009D01*
X107500499Y-120449983D01*
X182749500Y-120449983D01*
X182749500Y-123050001D01*
X182749501Y-123050018D01*
X182760000Y-123152796D01*
X182760001Y-123152799D01*
X182815185Y-123319331D01*
X182815187Y-123319336D01*
X182850069Y-123375888D01*
X182907288Y-123468656D01*
X183031344Y-123592712D01*
X183180666Y-123684814D01*
X183347203Y-123739999D01*
X183449991Y-123750500D01*
X188050008Y-123750499D01*
X188152797Y-123739999D01*
X188319334Y-123684814D01*
X188468656Y-123592712D01*
X188592712Y-123468656D01*
X188684814Y-123319334D01*
X188739999Y-123152797D01*
X188750500Y-123050009D01*
X188750499Y-120449992D01*
X188739999Y-120347203D01*
X188684814Y-120180666D01*
X188592712Y-120031344D01*
X188468656Y-119907288D01*
X188319334Y-119815186D01*
X188152797Y-119760001D01*
X188152795Y-119760000D01*
X188050010Y-119749500D01*
X183449998Y-119749500D01*
X183449981Y-119749501D01*
X183347203Y-119760000D01*
X183347200Y-119760001D01*
X183180668Y-119815185D01*
X183180663Y-119815187D01*
X183031342Y-119907289D01*
X182907289Y-120031342D01*
X182815187Y-120180663D01*
X182815185Y-120180668D01*
X182808785Y-120199983D01*
X182760001Y-120347203D01*
X182760001Y-120347204D01*
X182760000Y-120347204D01*
X182749500Y-120449983D01*
X107500499Y-120449983D01*
X107500499Y-120199992D01*
X107489999Y-120097203D01*
X107434814Y-119930666D01*
X107342712Y-119781344D01*
X107218656Y-119657288D01*
X107069334Y-119565186D01*
X106902797Y-119510001D01*
X106902795Y-119510000D01*
X106800010Y-119499500D01*
X102199998Y-119499500D01*
X102199981Y-119499501D01*
X102097203Y-119510000D01*
X102097200Y-119510001D01*
X101930668Y-119565185D01*
X101930663Y-119565187D01*
X101781342Y-119657289D01*
X101657289Y-119781342D01*
X101565187Y-119930663D01*
X101565186Y-119930666D01*
X101510001Y-120097203D01*
X101510001Y-120097204D01*
X101510000Y-120097204D01*
X101499500Y-120199983D01*
X100300490Y-120199983D01*
X100300490Y-113199983D01*
X101499500Y-113199983D01*
X101499500Y-115800001D01*
X101499501Y-115800018D01*
X101510000Y-115902796D01*
X101510001Y-115902799D01*
X101548980Y-116020427D01*
X101565186Y-116069334D01*
X101657288Y-116218656D01*
X101781344Y-116342712D01*
X101930666Y-116434814D01*
X102097203Y-116489999D01*
X102199991Y-116500500D01*
X106800008Y-116500499D01*
X106902797Y-116489999D01*
X107069334Y-116434814D01*
X107218656Y-116342712D01*
X107342712Y-116218656D01*
X107434814Y-116069334D01*
X107489999Y-115902797D01*
X107500500Y-115800009D01*
X107500499Y-113199992D01*
X107489999Y-113097203D01*
X107434814Y-112930666D01*
X107342712Y-112781344D01*
X107218656Y-112657288D01*
X107069334Y-112565186D01*
X106902797Y-112510001D01*
X106902795Y-112510000D01*
X106804895Y-112499999D01*
X110294422Y-112499999D01*
X110294422Y-112500000D01*
X110314722Y-112887339D01*
X110375397Y-113270427D01*
X110375397Y-113270429D01*
X110475788Y-113645094D01*
X110614787Y-114007197D01*
X110790877Y-114352793D01*
X111002122Y-114678082D01*
X111002124Y-114678084D01*
X111246219Y-114979516D01*
X111520484Y-115253781D01*
X111520488Y-115253784D01*
X111821917Y-115497877D01*
X112036670Y-115637339D01*
X112147211Y-115709125D01*
X112492806Y-115885214D01*
X112806948Y-116005802D01*
X112845047Y-116020427D01*
X112854913Y-116024214D01*
X113229567Y-116124602D01*
X113612662Y-116185278D01*
X113978576Y-116204455D01*
X113999999Y-116205578D01*
X114000000Y-116205578D01*
X114000001Y-116205578D01*
X114020301Y-116204514D01*
X114387338Y-116185278D01*
X114770433Y-116124602D01*
X115145087Y-116024214D01*
X115507194Y-115885214D01*
X115852789Y-115709125D01*
X116178084Y-115497876D01*
X116479516Y-115253781D01*
X116483298Y-115249999D01*
X171294422Y-115249999D01*
X171294422Y-115250000D01*
X171314722Y-115637339D01*
X171356766Y-115902795D01*
X171375398Y-116020433D01*
X171410864Y-116152796D01*
X171475788Y-116395094D01*
X171614787Y-116757197D01*
X171790877Y-117102793D01*
X172002122Y-117428082D01*
X172002124Y-117428084D01*
X172246219Y-117729516D01*
X172520484Y-118003781D01*
X172520488Y-118003784D01*
X172821917Y-118247877D01*
X173147206Y-118459122D01*
X173147211Y-118459125D01*
X173492806Y-118635214D01*
X173854913Y-118774214D01*
X174229567Y-118874602D01*
X174612662Y-118935278D01*
X174978576Y-118954455D01*
X174999999Y-118955578D01*
X175000000Y-118955578D01*
X175000001Y-118955578D01*
X175020301Y-118954514D01*
X175387338Y-118935278D01*
X175770433Y-118874602D01*
X176145087Y-118774214D01*
X176507194Y-118635214D01*
X176852789Y-118459125D01*
X177178084Y-118247876D01*
X177479516Y-118003781D01*
X177753781Y-117729516D01*
X177997876Y-117428084D01*
X178209125Y-117102789D01*
X178385214Y-116757194D01*
X178524214Y-116395087D01*
X178624602Y-116020433D01*
X178685278Y-115637338D01*
X178705578Y-115250000D01*
X178685278Y-114862662D01*
X178624602Y-114479567D01*
X178524214Y-114104913D01*
X178385214Y-113742806D01*
X178236014Y-113449983D01*
X182749500Y-113449983D01*
X182749500Y-116050001D01*
X182749501Y-116050018D01*
X182760000Y-116152796D01*
X182760001Y-116152799D01*
X182815185Y-116319331D01*
X182815187Y-116319336D01*
X182850069Y-116375888D01*
X182907288Y-116468656D01*
X183031344Y-116592712D01*
X183180666Y-116684814D01*
X183347203Y-116739999D01*
X183449991Y-116750500D01*
X188050008Y-116750499D01*
X188152797Y-116739999D01*
X188319334Y-116684814D01*
X188468656Y-116592712D01*
X188592712Y-116468656D01*
X188684814Y-116319334D01*
X188739999Y-116152797D01*
X188750500Y-116050009D01*
X188750499Y-113449992D01*
X188739999Y-113347203D01*
X188684814Y-113180666D01*
X188592712Y-113031344D01*
X188468656Y-112907288D01*
X188319334Y-112815186D01*
X188152797Y-112760001D01*
X188152795Y-112760000D01*
X188050010Y-112749500D01*
X183449998Y-112749500D01*
X183449981Y-112749501D01*
X183347203Y-112760000D01*
X183347200Y-112760001D01*
X183180668Y-112815185D01*
X183180663Y-112815187D01*
X183031342Y-112907289D01*
X182907289Y-113031342D01*
X182815187Y-113180663D01*
X182815185Y-113180668D01*
X182808785Y-113199983D01*
X182760001Y-113347203D01*
X182760001Y-113347204D01*
X182760000Y-113347204D01*
X182749500Y-113449983D01*
X178236014Y-113449983D01*
X178209125Y-113397211D01*
X178176650Y-113347204D01*
X177997877Y-113071917D01*
X177762575Y-112781344D01*
X177753781Y-112770484D01*
X177479516Y-112496219D01*
X177178084Y-112252124D01*
X177178082Y-112252122D01*
X176852793Y-112040877D01*
X176507197Y-111864787D01*
X176145094Y-111725788D01*
X176145087Y-111725786D01*
X175770433Y-111625398D01*
X175770429Y-111625397D01*
X175770428Y-111625397D01*
X175387339Y-111564722D01*
X175000001Y-111544422D01*
X174999999Y-111544422D01*
X174612660Y-111564722D01*
X174229572Y-111625397D01*
X174229570Y-111625397D01*
X173854905Y-111725788D01*
X173492802Y-111864787D01*
X173147206Y-112040877D01*
X172821917Y-112252122D01*
X172520488Y-112496215D01*
X172520480Y-112496222D01*
X172246222Y-112770480D01*
X172246215Y-112770488D01*
X172002122Y-113071917D01*
X171790877Y-113397206D01*
X171614787Y-113742802D01*
X171475788Y-114104905D01*
X171375397Y-114479570D01*
X171375397Y-114479572D01*
X171314722Y-114862660D01*
X171294422Y-115249999D01*
X116483298Y-115249999D01*
X116753781Y-114979516D01*
X116997876Y-114678084D01*
X117209125Y-114352789D01*
X117385214Y-114007194D01*
X117524214Y-113645087D01*
X117624602Y-113270433D01*
X117685278Y-112887338D01*
X117705578Y-112500000D01*
X117685278Y-112112662D01*
X117624602Y-111729567D01*
X117524214Y-111354913D01*
X117385214Y-110992806D01*
X117209125Y-110647211D01*
X116997876Y-110321916D01*
X116753781Y-110020484D01*
X116479516Y-109746219D01*
X116178084Y-109502124D01*
X116178082Y-109502122D01*
X115852793Y-109290877D01*
X115507197Y-109114787D01*
X115145094Y-108975788D01*
X115145087Y-108975786D01*
X114770433Y-108875398D01*
X114770429Y-108875397D01*
X114770428Y-108875397D01*
X114387339Y-108814722D01*
X114000001Y-108794422D01*
X113999999Y-108794422D01*
X113612660Y-108814722D01*
X113229572Y-108875397D01*
X113229570Y-108875397D01*
X112854905Y-108975788D01*
X112492802Y-109114787D01*
X112147206Y-109290877D01*
X111821917Y-109502122D01*
X111520488Y-109746215D01*
X111520480Y-109746222D01*
X111246222Y-110020480D01*
X111246215Y-110020488D01*
X111002122Y-110321917D01*
X110790877Y-110647206D01*
X110614787Y-110992802D01*
X110475788Y-111354905D01*
X110375397Y-111729570D01*
X110375397Y-111729572D01*
X110314722Y-112112660D01*
X110294422Y-112499999D01*
X106804895Y-112499999D01*
X106800010Y-112499500D01*
X102199998Y-112499500D01*
X102199981Y-112499501D01*
X102097203Y-112510000D01*
X102097200Y-112510001D01*
X101930668Y-112565185D01*
X101930663Y-112565187D01*
X101781342Y-112657289D01*
X101657289Y-112781342D01*
X101565187Y-112930663D01*
X101565186Y-112930666D01*
X101510001Y-113097203D01*
X101510001Y-113097204D01*
X101510000Y-113097204D01*
X101499500Y-113199983D01*
X100300490Y-113199983D01*
X100300490Y-104685777D01*
X175749500Y-104685777D01*
X175749500Y-108314208D01*
X175749501Y-108314223D01*
X175759904Y-108446413D01*
X175759905Y-108446420D01*
X175814902Y-108664678D01*
X175814903Y-108664681D01*
X175907991Y-108869622D01*
X175907997Y-108869632D01*
X176036174Y-109054645D01*
X176036178Y-109054650D01*
X176036181Y-109054654D01*
X176195346Y-109213819D01*
X176195350Y-109213822D01*
X176195354Y-109213825D01*
X176306569Y-109290875D01*
X176380374Y-109342007D01*
X176585317Y-109435096D01*
X176585321Y-109435097D01*
X176803579Y-109490094D01*
X176803581Y-109490094D01*
X176803588Y-109490096D01*
X176935783Y-109500500D01*
X178564216Y-109500499D01*
X178696412Y-109490096D01*
X178914683Y-109435096D01*
X179119626Y-109342007D01*
X179304654Y-109213819D01*
X179463819Y-109054654D01*
X179592007Y-108869626D01*
X179685096Y-108664683D01*
X179740096Y-108446412D01*
X179750500Y-108314217D01*
X179750499Y-104685784D01*
X179740096Y-104553588D01*
X179685096Y-104335317D01*
X179592007Y-104130374D01*
X179463819Y-103945346D01*
X179304654Y-103786181D01*
X179304650Y-103786178D01*
X179304645Y-103786174D01*
X179119632Y-103657997D01*
X179119630Y-103657995D01*
X179119626Y-103657993D01*
X178914683Y-103564904D01*
X178914681Y-103564903D01*
X178914678Y-103564902D01*
X178696420Y-103509905D01*
X178696413Y-103509904D01*
X178652347Y-103506436D01*
X178564217Y-103499500D01*
X178564215Y-103499500D01*
X176935791Y-103499500D01*
X176935776Y-103499501D01*
X176803586Y-103509904D01*
X176803579Y-103509905D01*
X176585321Y-103564902D01*
X176585318Y-103564903D01*
X176380377Y-103657991D01*
X176380367Y-103657997D01*
X176195354Y-103786174D01*
X176195342Y-103786184D01*
X176036184Y-103945342D01*
X176036174Y-103945354D01*
X175907997Y-104130367D01*
X175907991Y-104130377D01*
X175814903Y-104335318D01*
X175814902Y-104335321D01*
X175759905Y-104553579D01*
X175759904Y-104553586D01*
X175749500Y-104685777D01*
X100300490Y-104685777D01*
X100300490Y-100000000D01*
X112699510Y-100000000D01*
X112699510Y-100039560D01*
G37*
G04 #@! TD.AperFunction*
G04 #@! TA.AperFunction,Conductor*
G36*
X112642549Y-80320175D02*
G01*
X112688304Y-80372979D01*
X112699510Y-80424490D01*
X112699510Y-100000000D01*
X100300490Y-100000000D01*
X100300490Y-81699983D01*
X100999500Y-81699983D01*
X100999500Y-86300001D01*
X100999501Y-86300018D01*
X101010000Y-86402796D01*
X101010001Y-86402799D01*
X101065185Y-86569331D01*
X101065186Y-86569334D01*
X101157288Y-86718656D01*
X101281344Y-86842712D01*
X101430666Y-86934814D01*
X101597203Y-86989999D01*
X101699991Y-87000500D01*
X104300008Y-87000499D01*
X104402797Y-86989999D01*
X104569334Y-86934814D01*
X104718656Y-86842712D01*
X104842712Y-86718656D01*
X104934814Y-86569334D01*
X104989999Y-86402797D01*
X105000500Y-86300009D01*
X105000499Y-81699992D01*
X105000498Y-81699983D01*
X107999500Y-81699983D01*
X107999500Y-86300001D01*
X107999501Y-86300018D01*
X108010000Y-86402796D01*
X108010001Y-86402799D01*
X108065185Y-86569331D01*
X108065186Y-86569334D01*
X108157288Y-86718656D01*
X108281344Y-86842712D01*
X108430666Y-86934814D01*
X108597203Y-86989999D01*
X108699991Y-87000500D01*
X111300008Y-87000499D01*
X111402797Y-86989999D01*
X111569334Y-86934814D01*
X111718656Y-86842712D01*
X111842712Y-86718656D01*
X111934814Y-86569334D01*
X111989999Y-86402797D01*
X112000500Y-86300009D01*
X112000499Y-81699992D01*
X111989999Y-81597203D01*
X111934814Y-81430666D01*
X111842712Y-81281344D01*
X111718656Y-81157288D01*
X111569334Y-81065186D01*
X111402797Y-81010001D01*
X111402795Y-81010000D01*
X111300010Y-80999500D01*
X108699998Y-80999500D01*
X108699981Y-80999501D01*
X108597203Y-81010000D01*
X108597200Y-81010001D01*
X108430668Y-81065185D01*
X108430663Y-81065187D01*
X108281342Y-81157289D01*
X108157289Y-81281342D01*
X108065187Y-81430663D01*
X108065186Y-81430666D01*
X108010001Y-81597203D01*
X108010001Y-81597204D01*
X108010000Y-81597204D01*
X107999500Y-81699983D01*
X105000498Y-81699983D01*
X104989999Y-81597203D01*
X104934814Y-81430666D01*
X104842712Y-81281344D01*
X104718656Y-81157288D01*
X104569334Y-81065186D01*
X104402797Y-81010001D01*
X104402795Y-81010000D01*
X104300010Y-80999500D01*
X101699998Y-80999500D01*
X101699981Y-80999501D01*
X101597203Y-81010000D01*
X101597200Y-81010001D01*
X101430668Y-81065185D01*
X101430663Y-81065187D01*
X101281342Y-81157289D01*
X101157289Y-81281342D01*
X101065187Y-81430663D01*
X101065186Y-81430666D01*
X101010001Y-81597203D01*
X101010001Y-81597204D01*
X101010000Y-81597204D01*
X100999500Y-81699983D01*
X100300490Y-81699983D01*
X100300490Y-80424490D01*
X100320175Y-80357451D01*
X100372979Y-80311696D01*
X100424490Y-80300490D01*
X112575510Y-80300490D01*
X112642549Y-80320175D01*
G37*
G04 #@! TD.AperFunction*
M02*
