%TF.GenerationSoftware,KiCad,Pcbnew,8.0.6*%
%TF.CreationDate,2025-01-23T20:02:07-06:00*%
%TF.ProjectId,PD_Board,50445f42-6f61-4726-942e-6b696361645f,rev?*%
%TF.SameCoordinates,Original*%
%TF.FileFunction,Drillmap*%
%TF.FilePolarity,Positive*%
%FSLAX45Y45*%
G04 Gerber Fmt 4.5, Leading zero omitted, Abs format (unit mm)*
G04 Created by KiCad (PCBNEW 8.0.6) date 2025-01-23 20:02:07*
%MOMM*%
%LPD*%
G01*
G04 APERTURE LIST*
%ADD10C,0.050000*%
%ADD11C,0.200000*%
%ADD12C,0.100000*%
%ADD13C,0.250000*%
%ADD14C,0.320000*%
G04 APERTURE END LIST*
D10*
X10000000Y-12500000D02*
X10000000Y-10000000D01*
X19000000Y-12500000D02*
X10000000Y-12500000D01*
X19000000Y-10000000D02*
X19000000Y-12500000D01*
X11300000Y-10000000D02*
X19000000Y-10000000D01*
X11300000Y-8000000D02*
X11300000Y-10000000D01*
X10000000Y-8000000D02*
X11300000Y-8000000D01*
X10000000Y-10000000D02*
X10000000Y-8000000D01*
D11*
D12*
X16722000Y-12085000D02*
X16752000Y-12115000D01*
X16752000Y-12085000D02*
X16722000Y-12115000D01*
D13*
X10425000Y-8400000D02*
G75*
G02*
X10175000Y-8400000I-125000J0D01*
G01*
X10175000Y-8400000D02*
G75*
G02*
X10425000Y-8400000I125000J0D01*
G01*
X10575000Y-11450000D02*
G75*
G02*
X10325000Y-11450000I-125000J0D01*
G01*
X10325000Y-11450000D02*
G75*
G02*
X10575000Y-11450000I125000J0D01*
G01*
X10575000Y-11800000D02*
G75*
G02*
X10325000Y-11800000I-125000J0D01*
G01*
X10325000Y-11800000D02*
G75*
G02*
X10575000Y-11800000I125000J0D01*
G01*
X10575000Y-12150000D02*
G75*
G02*
X10325000Y-12150000I-125000J0D01*
G01*
X10325000Y-12150000D02*
G75*
G02*
X10575000Y-12150000I125000J0D01*
G01*
X10775000Y-8400000D02*
G75*
G02*
X10525000Y-8400000I-125000J0D01*
G01*
X10525000Y-8400000D02*
G75*
G02*
X10775000Y-8400000I125000J0D01*
G01*
X11125000Y-8400000D02*
G75*
G02*
X10875000Y-8400000I-125000J0D01*
G01*
X10875000Y-8400000D02*
G75*
G02*
X11125000Y-8400000I125000J0D01*
G01*
X17900000Y-10650000D02*
G75*
G02*
X17650000Y-10650000I-125000J0D01*
G01*
X17650000Y-10650000D02*
G75*
G02*
X17900000Y-10650000I125000J0D01*
G01*
X18400000Y-10650000D02*
G75*
G02*
X18150000Y-10650000I-125000J0D01*
G01*
X18150000Y-10650000D02*
G75*
G02*
X18400000Y-10650000I125000J0D01*
G01*
X18700000Y-11475000D02*
G75*
G02*
X18450000Y-11475000I-125000J0D01*
G01*
X18450000Y-11475000D02*
G75*
G02*
X18700000Y-11475000I125000J0D01*
G01*
X18700000Y-11825000D02*
G75*
G02*
X18450000Y-11825000I-125000J0D01*
G01*
X18450000Y-11825000D02*
G75*
G02*
X18700000Y-11825000I125000J0D01*
G01*
X18700000Y-12175000D02*
G75*
G02*
X18450000Y-12175000I-125000J0D01*
G01*
X18450000Y-12175000D02*
G75*
G02*
X18700000Y-12175000I125000J0D01*
G01*
D14*
X11400000Y-11090000D02*
X11400000Y-11410000D01*
X11240000Y-11250000D02*
X11560000Y-11250000D01*
X17500000Y-11365000D02*
X17500000Y-11685000D01*
X17340000Y-11525000D02*
X17660000Y-11525000D01*
D11*
X10258277Y-12813984D02*
X10258277Y-12613984D01*
X10258277Y-12613984D02*
X10305896Y-12613984D01*
X10305896Y-12613984D02*
X10334467Y-12623508D01*
X10334467Y-12623508D02*
X10353515Y-12642555D01*
X10353515Y-12642555D02*
X10363039Y-12661603D01*
X10363039Y-12661603D02*
X10372563Y-12699698D01*
X10372563Y-12699698D02*
X10372563Y-12728269D01*
X10372563Y-12728269D02*
X10363039Y-12766365D01*
X10363039Y-12766365D02*
X10353515Y-12785412D01*
X10353515Y-12785412D02*
X10334467Y-12804460D01*
X10334467Y-12804460D02*
X10305896Y-12813984D01*
X10305896Y-12813984D02*
X10258277Y-12813984D01*
X10458277Y-12813984D02*
X10458277Y-12680650D01*
X10458277Y-12718746D02*
X10467801Y-12699698D01*
X10467801Y-12699698D02*
X10477324Y-12690174D01*
X10477324Y-12690174D02*
X10496372Y-12680650D01*
X10496372Y-12680650D02*
X10515420Y-12680650D01*
X10582086Y-12813984D02*
X10582086Y-12680650D01*
X10582086Y-12613984D02*
X10572563Y-12623508D01*
X10572563Y-12623508D02*
X10582086Y-12633031D01*
X10582086Y-12633031D02*
X10591610Y-12623508D01*
X10591610Y-12623508D02*
X10582086Y-12613984D01*
X10582086Y-12613984D02*
X10582086Y-12633031D01*
X10705896Y-12813984D02*
X10686848Y-12804460D01*
X10686848Y-12804460D02*
X10677324Y-12785412D01*
X10677324Y-12785412D02*
X10677324Y-12613984D01*
X10810658Y-12813984D02*
X10791610Y-12804460D01*
X10791610Y-12804460D02*
X10782086Y-12785412D01*
X10782086Y-12785412D02*
X10782086Y-12613984D01*
X11039229Y-12813984D02*
X11039229Y-12613984D01*
X11039229Y-12613984D02*
X11105896Y-12756841D01*
X11105896Y-12756841D02*
X11172563Y-12613984D01*
X11172563Y-12613984D02*
X11172563Y-12813984D01*
X11353515Y-12813984D02*
X11353515Y-12709222D01*
X11353515Y-12709222D02*
X11343991Y-12690174D01*
X11343991Y-12690174D02*
X11324943Y-12680650D01*
X11324943Y-12680650D02*
X11286848Y-12680650D01*
X11286848Y-12680650D02*
X11267801Y-12690174D01*
X11353515Y-12804460D02*
X11334467Y-12813984D01*
X11334467Y-12813984D02*
X11286848Y-12813984D01*
X11286848Y-12813984D02*
X11267801Y-12804460D01*
X11267801Y-12804460D02*
X11258277Y-12785412D01*
X11258277Y-12785412D02*
X11258277Y-12766365D01*
X11258277Y-12766365D02*
X11267801Y-12747317D01*
X11267801Y-12747317D02*
X11286848Y-12737793D01*
X11286848Y-12737793D02*
X11334467Y-12737793D01*
X11334467Y-12737793D02*
X11353515Y-12728269D01*
X11448753Y-12680650D02*
X11448753Y-12880650D01*
X11448753Y-12690174D02*
X11467801Y-12680650D01*
X11467801Y-12680650D02*
X11505896Y-12680650D01*
X11505896Y-12680650D02*
X11524943Y-12690174D01*
X11524943Y-12690174D02*
X11534467Y-12699698D01*
X11534467Y-12699698D02*
X11543991Y-12718746D01*
X11543991Y-12718746D02*
X11543991Y-12775888D01*
X11543991Y-12775888D02*
X11534467Y-12794936D01*
X11534467Y-12794936D02*
X11524943Y-12804460D01*
X11524943Y-12804460D02*
X11505896Y-12813984D01*
X11505896Y-12813984D02*
X11467801Y-12813984D01*
X11467801Y-12813984D02*
X11448753Y-12804460D01*
X11629705Y-12794936D02*
X11639229Y-12804460D01*
X11639229Y-12804460D02*
X11629705Y-12813984D01*
X11629705Y-12813984D02*
X11620182Y-12804460D01*
X11620182Y-12804460D02*
X11629705Y-12794936D01*
X11629705Y-12794936D02*
X11629705Y-12813984D01*
X11629705Y-12690174D02*
X11639229Y-12699698D01*
X11639229Y-12699698D02*
X11629705Y-12709222D01*
X11629705Y-12709222D02*
X11620182Y-12699698D01*
X11620182Y-12699698D02*
X11629705Y-12690174D01*
X11629705Y-12690174D02*
X11629705Y-12709222D01*
D12*
X9967500Y-13127500D02*
X9997500Y-13157500D01*
X9997500Y-13127500D02*
X9967500Y-13157500D01*
D11*
X10296372Y-13033984D02*
X10315420Y-13033984D01*
X10315420Y-13033984D02*
X10334467Y-13043508D01*
X10334467Y-13043508D02*
X10343991Y-13053031D01*
X10343991Y-13053031D02*
X10353515Y-13072079D01*
X10353515Y-13072079D02*
X10363039Y-13110174D01*
X10363039Y-13110174D02*
X10363039Y-13157793D01*
X10363039Y-13157793D02*
X10353515Y-13195888D01*
X10353515Y-13195888D02*
X10343991Y-13214936D01*
X10343991Y-13214936D02*
X10334467Y-13224460D01*
X10334467Y-13224460D02*
X10315420Y-13233984D01*
X10315420Y-13233984D02*
X10296372Y-13233984D01*
X10296372Y-13233984D02*
X10277324Y-13224460D01*
X10277324Y-13224460D02*
X10267801Y-13214936D01*
X10267801Y-13214936D02*
X10258277Y-13195888D01*
X10258277Y-13195888D02*
X10248753Y-13157793D01*
X10248753Y-13157793D02*
X10248753Y-13110174D01*
X10248753Y-13110174D02*
X10258277Y-13072079D01*
X10258277Y-13072079D02*
X10267801Y-13053031D01*
X10267801Y-13053031D02*
X10277324Y-13043508D01*
X10277324Y-13043508D02*
X10296372Y-13033984D01*
X10448753Y-13214936D02*
X10458277Y-13224460D01*
X10458277Y-13224460D02*
X10448753Y-13233984D01*
X10448753Y-13233984D02*
X10439229Y-13224460D01*
X10439229Y-13224460D02*
X10448753Y-13214936D01*
X10448753Y-13214936D02*
X10448753Y-13233984D01*
X10524944Y-13033984D02*
X10648753Y-13033984D01*
X10648753Y-13033984D02*
X10582086Y-13110174D01*
X10582086Y-13110174D02*
X10610658Y-13110174D01*
X10610658Y-13110174D02*
X10629705Y-13119698D01*
X10629705Y-13119698D02*
X10639229Y-13129222D01*
X10639229Y-13129222D02*
X10648753Y-13148269D01*
X10648753Y-13148269D02*
X10648753Y-13195888D01*
X10648753Y-13195888D02*
X10639229Y-13214936D01*
X10639229Y-13214936D02*
X10629705Y-13224460D01*
X10629705Y-13224460D02*
X10610658Y-13233984D01*
X10610658Y-13233984D02*
X10553515Y-13233984D01*
X10553515Y-13233984D02*
X10534467Y-13224460D01*
X10534467Y-13224460D02*
X10524944Y-13214936D01*
X10772563Y-13033984D02*
X10791610Y-13033984D01*
X10791610Y-13033984D02*
X10810658Y-13043508D01*
X10810658Y-13043508D02*
X10820182Y-13053031D01*
X10820182Y-13053031D02*
X10829705Y-13072079D01*
X10829705Y-13072079D02*
X10839229Y-13110174D01*
X10839229Y-13110174D02*
X10839229Y-13157793D01*
X10839229Y-13157793D02*
X10829705Y-13195888D01*
X10829705Y-13195888D02*
X10820182Y-13214936D01*
X10820182Y-13214936D02*
X10810658Y-13224460D01*
X10810658Y-13224460D02*
X10791610Y-13233984D01*
X10791610Y-13233984D02*
X10772563Y-13233984D01*
X10772563Y-13233984D02*
X10753515Y-13224460D01*
X10753515Y-13224460D02*
X10743991Y-13214936D01*
X10743991Y-13214936D02*
X10734467Y-13195888D01*
X10734467Y-13195888D02*
X10724944Y-13157793D01*
X10724944Y-13157793D02*
X10724944Y-13110174D01*
X10724944Y-13110174D02*
X10734467Y-13072079D01*
X10734467Y-13072079D02*
X10743991Y-13053031D01*
X10743991Y-13053031D02*
X10753515Y-13043508D01*
X10753515Y-13043508D02*
X10772563Y-13033984D01*
X10963039Y-13033984D02*
X10982086Y-13033984D01*
X10982086Y-13033984D02*
X11001134Y-13043508D01*
X11001134Y-13043508D02*
X11010658Y-13053031D01*
X11010658Y-13053031D02*
X11020182Y-13072079D01*
X11020182Y-13072079D02*
X11029705Y-13110174D01*
X11029705Y-13110174D02*
X11029705Y-13157793D01*
X11029705Y-13157793D02*
X11020182Y-13195888D01*
X11020182Y-13195888D02*
X11010658Y-13214936D01*
X11010658Y-13214936D02*
X11001134Y-13224460D01*
X11001134Y-13224460D02*
X10982086Y-13233984D01*
X10982086Y-13233984D02*
X10963039Y-13233984D01*
X10963039Y-13233984D02*
X10943991Y-13224460D01*
X10943991Y-13224460D02*
X10934467Y-13214936D01*
X10934467Y-13214936D02*
X10924944Y-13195888D01*
X10924944Y-13195888D02*
X10915420Y-13157793D01*
X10915420Y-13157793D02*
X10915420Y-13110174D01*
X10915420Y-13110174D02*
X10924944Y-13072079D01*
X10924944Y-13072079D02*
X10934467Y-13053031D01*
X10934467Y-13053031D02*
X10943991Y-13043508D01*
X10943991Y-13043508D02*
X10963039Y-13033984D01*
X11115420Y-13233984D02*
X11115420Y-13100650D01*
X11115420Y-13119698D02*
X11124944Y-13110174D01*
X11124944Y-13110174D02*
X11143991Y-13100650D01*
X11143991Y-13100650D02*
X11172563Y-13100650D01*
X11172563Y-13100650D02*
X11191610Y-13110174D01*
X11191610Y-13110174D02*
X11201134Y-13129222D01*
X11201134Y-13129222D02*
X11201134Y-13233984D01*
X11201134Y-13129222D02*
X11210658Y-13110174D01*
X11210658Y-13110174D02*
X11229705Y-13100650D01*
X11229705Y-13100650D02*
X11258277Y-13100650D01*
X11258277Y-13100650D02*
X11277324Y-13110174D01*
X11277324Y-13110174D02*
X11286848Y-13129222D01*
X11286848Y-13129222D02*
X11286848Y-13233984D01*
X11382086Y-13233984D02*
X11382086Y-13100650D01*
X11382086Y-13119698D02*
X11391610Y-13110174D01*
X11391610Y-13110174D02*
X11410658Y-13100650D01*
X11410658Y-13100650D02*
X11439229Y-13100650D01*
X11439229Y-13100650D02*
X11458277Y-13110174D01*
X11458277Y-13110174D02*
X11467801Y-13129222D01*
X11467801Y-13129222D02*
X11467801Y-13233984D01*
X11467801Y-13129222D02*
X11477324Y-13110174D01*
X11477324Y-13110174D02*
X11496372Y-13100650D01*
X11496372Y-13100650D02*
X11524943Y-13100650D01*
X11524943Y-13100650D02*
X11543991Y-13110174D01*
X11543991Y-13110174D02*
X11553515Y-13129222D01*
X11553515Y-13129222D02*
X11553515Y-13233984D01*
X11943991Y-13024460D02*
X11772563Y-13281603D01*
X12201134Y-13033984D02*
X12220182Y-13033984D01*
X12220182Y-13033984D02*
X12239229Y-13043508D01*
X12239229Y-13043508D02*
X12248753Y-13053031D01*
X12248753Y-13053031D02*
X12258277Y-13072079D01*
X12258277Y-13072079D02*
X12267801Y-13110174D01*
X12267801Y-13110174D02*
X12267801Y-13157793D01*
X12267801Y-13157793D02*
X12258277Y-13195888D01*
X12258277Y-13195888D02*
X12248753Y-13214936D01*
X12248753Y-13214936D02*
X12239229Y-13224460D01*
X12239229Y-13224460D02*
X12220182Y-13233984D01*
X12220182Y-13233984D02*
X12201134Y-13233984D01*
X12201134Y-13233984D02*
X12182086Y-13224460D01*
X12182086Y-13224460D02*
X12172563Y-13214936D01*
X12172563Y-13214936D02*
X12163039Y-13195888D01*
X12163039Y-13195888D02*
X12153515Y-13157793D01*
X12153515Y-13157793D02*
X12153515Y-13110174D01*
X12153515Y-13110174D02*
X12163039Y-13072079D01*
X12163039Y-13072079D02*
X12172563Y-13053031D01*
X12172563Y-13053031D02*
X12182086Y-13043508D01*
X12182086Y-13043508D02*
X12201134Y-13033984D01*
X12353515Y-13214936D02*
X12363039Y-13224460D01*
X12363039Y-13224460D02*
X12353515Y-13233984D01*
X12353515Y-13233984D02*
X12343991Y-13224460D01*
X12343991Y-13224460D02*
X12353515Y-13214936D01*
X12353515Y-13214936D02*
X12353515Y-13233984D01*
X12486848Y-13033984D02*
X12505896Y-13033984D01*
X12505896Y-13033984D02*
X12524944Y-13043508D01*
X12524944Y-13043508D02*
X12534467Y-13053031D01*
X12534467Y-13053031D02*
X12543991Y-13072079D01*
X12543991Y-13072079D02*
X12553515Y-13110174D01*
X12553515Y-13110174D02*
X12553515Y-13157793D01*
X12553515Y-13157793D02*
X12543991Y-13195888D01*
X12543991Y-13195888D02*
X12534467Y-13214936D01*
X12534467Y-13214936D02*
X12524944Y-13224460D01*
X12524944Y-13224460D02*
X12505896Y-13233984D01*
X12505896Y-13233984D02*
X12486848Y-13233984D01*
X12486848Y-13233984D02*
X12467801Y-13224460D01*
X12467801Y-13224460D02*
X12458277Y-13214936D01*
X12458277Y-13214936D02*
X12448753Y-13195888D01*
X12448753Y-13195888D02*
X12439229Y-13157793D01*
X12439229Y-13157793D02*
X12439229Y-13110174D01*
X12439229Y-13110174D02*
X12448753Y-13072079D01*
X12448753Y-13072079D02*
X12458277Y-13053031D01*
X12458277Y-13053031D02*
X12467801Y-13043508D01*
X12467801Y-13043508D02*
X12486848Y-13033984D01*
X12743991Y-13233984D02*
X12629706Y-13233984D01*
X12686848Y-13233984D02*
X12686848Y-13033984D01*
X12686848Y-13033984D02*
X12667801Y-13062555D01*
X12667801Y-13062555D02*
X12648753Y-13081603D01*
X12648753Y-13081603D02*
X12629706Y-13091127D01*
X12934467Y-13233984D02*
X12820182Y-13233984D01*
X12877325Y-13233984D02*
X12877325Y-13033984D01*
X12877325Y-13033984D02*
X12858277Y-13062555D01*
X12858277Y-13062555D02*
X12839229Y-13081603D01*
X12839229Y-13081603D02*
X12820182Y-13091127D01*
X13048753Y-13119698D02*
X13029706Y-13110174D01*
X13029706Y-13110174D02*
X13020182Y-13100650D01*
X13020182Y-13100650D02*
X13010658Y-13081603D01*
X13010658Y-13081603D02*
X13010658Y-13072079D01*
X13010658Y-13072079D02*
X13020182Y-13053031D01*
X13020182Y-13053031D02*
X13029706Y-13043508D01*
X13029706Y-13043508D02*
X13048753Y-13033984D01*
X13048753Y-13033984D02*
X13086848Y-13033984D01*
X13086848Y-13033984D02*
X13105896Y-13043508D01*
X13105896Y-13043508D02*
X13115420Y-13053031D01*
X13115420Y-13053031D02*
X13124944Y-13072079D01*
X13124944Y-13072079D02*
X13124944Y-13081603D01*
X13124944Y-13081603D02*
X13115420Y-13100650D01*
X13115420Y-13100650D02*
X13105896Y-13110174D01*
X13105896Y-13110174D02*
X13086848Y-13119698D01*
X13086848Y-13119698D02*
X13048753Y-13119698D01*
X13048753Y-13119698D02*
X13029706Y-13129222D01*
X13029706Y-13129222D02*
X13020182Y-13138746D01*
X13020182Y-13138746D02*
X13010658Y-13157793D01*
X13010658Y-13157793D02*
X13010658Y-13195888D01*
X13010658Y-13195888D02*
X13020182Y-13214936D01*
X13020182Y-13214936D02*
X13029706Y-13224460D01*
X13029706Y-13224460D02*
X13048753Y-13233984D01*
X13048753Y-13233984D02*
X13086848Y-13233984D01*
X13086848Y-13233984D02*
X13105896Y-13224460D01*
X13105896Y-13224460D02*
X13115420Y-13214936D01*
X13115420Y-13214936D02*
X13124944Y-13195888D01*
X13124944Y-13195888D02*
X13124944Y-13157793D01*
X13124944Y-13157793D02*
X13115420Y-13138746D01*
X13115420Y-13138746D02*
X13105896Y-13129222D01*
X13105896Y-13129222D02*
X13086848Y-13119698D01*
X13201134Y-13033984D02*
X13201134Y-13072079D01*
X13277325Y-13033984D02*
X13277325Y-13072079D01*
X13572563Y-13310174D02*
X13563039Y-13300650D01*
X13563039Y-13300650D02*
X13543991Y-13272079D01*
X13543991Y-13272079D02*
X13534468Y-13253031D01*
X13534468Y-13253031D02*
X13524944Y-13224460D01*
X13524944Y-13224460D02*
X13515420Y-13176841D01*
X13515420Y-13176841D02*
X13515420Y-13138746D01*
X13515420Y-13138746D02*
X13524944Y-13091127D01*
X13524944Y-13091127D02*
X13534468Y-13062555D01*
X13534468Y-13062555D02*
X13543991Y-13043508D01*
X13543991Y-13043508D02*
X13563039Y-13014936D01*
X13563039Y-13014936D02*
X13572563Y-13005412D01*
X13753515Y-13233984D02*
X13639229Y-13233984D01*
X13696372Y-13233984D02*
X13696372Y-13033984D01*
X13696372Y-13033984D02*
X13677325Y-13062555D01*
X13677325Y-13062555D02*
X13658277Y-13081603D01*
X13658277Y-13081603D02*
X13639229Y-13091127D01*
X13991610Y-13233984D02*
X13991610Y-13033984D01*
X14077325Y-13233984D02*
X14077325Y-13129222D01*
X14077325Y-13129222D02*
X14067801Y-13110174D01*
X14067801Y-13110174D02*
X14048753Y-13100650D01*
X14048753Y-13100650D02*
X14020182Y-13100650D01*
X14020182Y-13100650D02*
X14001134Y-13110174D01*
X14001134Y-13110174D02*
X13991610Y-13119698D01*
X14201134Y-13233984D02*
X14182087Y-13224460D01*
X14182087Y-13224460D02*
X14172563Y-13214936D01*
X14172563Y-13214936D02*
X14163039Y-13195888D01*
X14163039Y-13195888D02*
X14163039Y-13138746D01*
X14163039Y-13138746D02*
X14172563Y-13119698D01*
X14172563Y-13119698D02*
X14182087Y-13110174D01*
X14182087Y-13110174D02*
X14201134Y-13100650D01*
X14201134Y-13100650D02*
X14229706Y-13100650D01*
X14229706Y-13100650D02*
X14248753Y-13110174D01*
X14248753Y-13110174D02*
X14258277Y-13119698D01*
X14258277Y-13119698D02*
X14267801Y-13138746D01*
X14267801Y-13138746D02*
X14267801Y-13195888D01*
X14267801Y-13195888D02*
X14258277Y-13214936D01*
X14258277Y-13214936D02*
X14248753Y-13224460D01*
X14248753Y-13224460D02*
X14229706Y-13233984D01*
X14229706Y-13233984D02*
X14201134Y-13233984D01*
X14382087Y-13233984D02*
X14363039Y-13224460D01*
X14363039Y-13224460D02*
X14353515Y-13205412D01*
X14353515Y-13205412D02*
X14353515Y-13033984D01*
X14534468Y-13224460D02*
X14515420Y-13233984D01*
X14515420Y-13233984D02*
X14477325Y-13233984D01*
X14477325Y-13233984D02*
X14458277Y-13224460D01*
X14458277Y-13224460D02*
X14448753Y-13205412D01*
X14448753Y-13205412D02*
X14448753Y-13129222D01*
X14448753Y-13129222D02*
X14458277Y-13110174D01*
X14458277Y-13110174D02*
X14477325Y-13100650D01*
X14477325Y-13100650D02*
X14515420Y-13100650D01*
X14515420Y-13100650D02*
X14534468Y-13110174D01*
X14534468Y-13110174D02*
X14543991Y-13129222D01*
X14543991Y-13129222D02*
X14543991Y-13148269D01*
X14543991Y-13148269D02*
X14448753Y-13167317D01*
X14610658Y-13310174D02*
X14620182Y-13300650D01*
X14620182Y-13300650D02*
X14639230Y-13272079D01*
X14639230Y-13272079D02*
X14648753Y-13253031D01*
X14648753Y-13253031D02*
X14658277Y-13224460D01*
X14658277Y-13224460D02*
X14667801Y-13176841D01*
X14667801Y-13176841D02*
X14667801Y-13138746D01*
X14667801Y-13138746D02*
X14658277Y-13091127D01*
X14658277Y-13091127D02*
X14648753Y-13062555D01*
X14648753Y-13062555D02*
X14639230Y-13043508D01*
X14639230Y-13043508D02*
X14620182Y-13014936D01*
X14620182Y-13014936D02*
X14610658Y-13005412D01*
X9997500Y-13406500D02*
G75*
G02*
X9797500Y-13406500I-100000J0D01*
G01*
X9797500Y-13406500D02*
G75*
G02*
X9997500Y-13406500I100000J0D01*
G01*
X10248753Y-13317031D02*
X10258277Y-13307508D01*
X10258277Y-13307508D02*
X10277324Y-13297984D01*
X10277324Y-13297984D02*
X10324944Y-13297984D01*
X10324944Y-13297984D02*
X10343991Y-13307508D01*
X10343991Y-13307508D02*
X10353515Y-13317031D01*
X10353515Y-13317031D02*
X10363039Y-13336079D01*
X10363039Y-13336079D02*
X10363039Y-13355127D01*
X10363039Y-13355127D02*
X10353515Y-13383698D01*
X10353515Y-13383698D02*
X10239229Y-13497984D01*
X10239229Y-13497984D02*
X10363039Y-13497984D01*
X10448753Y-13478936D02*
X10458277Y-13488460D01*
X10458277Y-13488460D02*
X10448753Y-13497984D01*
X10448753Y-13497984D02*
X10439229Y-13488460D01*
X10439229Y-13488460D02*
X10448753Y-13478936D01*
X10448753Y-13478936D02*
X10448753Y-13497984D01*
X10639229Y-13297984D02*
X10543991Y-13297984D01*
X10543991Y-13297984D02*
X10534467Y-13393222D01*
X10534467Y-13393222D02*
X10543991Y-13383698D01*
X10543991Y-13383698D02*
X10563039Y-13374174D01*
X10563039Y-13374174D02*
X10610658Y-13374174D01*
X10610658Y-13374174D02*
X10629705Y-13383698D01*
X10629705Y-13383698D02*
X10639229Y-13393222D01*
X10639229Y-13393222D02*
X10648753Y-13412269D01*
X10648753Y-13412269D02*
X10648753Y-13459888D01*
X10648753Y-13459888D02*
X10639229Y-13478936D01*
X10639229Y-13478936D02*
X10629705Y-13488460D01*
X10629705Y-13488460D02*
X10610658Y-13497984D01*
X10610658Y-13497984D02*
X10563039Y-13497984D01*
X10563039Y-13497984D02*
X10543991Y-13488460D01*
X10543991Y-13488460D02*
X10534467Y-13478936D01*
X10772563Y-13297984D02*
X10791610Y-13297984D01*
X10791610Y-13297984D02*
X10810658Y-13307508D01*
X10810658Y-13307508D02*
X10820182Y-13317031D01*
X10820182Y-13317031D02*
X10829705Y-13336079D01*
X10829705Y-13336079D02*
X10839229Y-13374174D01*
X10839229Y-13374174D02*
X10839229Y-13421793D01*
X10839229Y-13421793D02*
X10829705Y-13459888D01*
X10829705Y-13459888D02*
X10820182Y-13478936D01*
X10820182Y-13478936D02*
X10810658Y-13488460D01*
X10810658Y-13488460D02*
X10791610Y-13497984D01*
X10791610Y-13497984D02*
X10772563Y-13497984D01*
X10772563Y-13497984D02*
X10753515Y-13488460D01*
X10753515Y-13488460D02*
X10743991Y-13478936D01*
X10743991Y-13478936D02*
X10734467Y-13459888D01*
X10734467Y-13459888D02*
X10724944Y-13421793D01*
X10724944Y-13421793D02*
X10724944Y-13374174D01*
X10724944Y-13374174D02*
X10734467Y-13336079D01*
X10734467Y-13336079D02*
X10743991Y-13317031D01*
X10743991Y-13317031D02*
X10753515Y-13307508D01*
X10753515Y-13307508D02*
X10772563Y-13297984D01*
X10963039Y-13297984D02*
X10982086Y-13297984D01*
X10982086Y-13297984D02*
X11001134Y-13307508D01*
X11001134Y-13307508D02*
X11010658Y-13317031D01*
X11010658Y-13317031D02*
X11020182Y-13336079D01*
X11020182Y-13336079D02*
X11029705Y-13374174D01*
X11029705Y-13374174D02*
X11029705Y-13421793D01*
X11029705Y-13421793D02*
X11020182Y-13459888D01*
X11020182Y-13459888D02*
X11010658Y-13478936D01*
X11010658Y-13478936D02*
X11001134Y-13488460D01*
X11001134Y-13488460D02*
X10982086Y-13497984D01*
X10982086Y-13497984D02*
X10963039Y-13497984D01*
X10963039Y-13497984D02*
X10943991Y-13488460D01*
X10943991Y-13488460D02*
X10934467Y-13478936D01*
X10934467Y-13478936D02*
X10924944Y-13459888D01*
X10924944Y-13459888D02*
X10915420Y-13421793D01*
X10915420Y-13421793D02*
X10915420Y-13374174D01*
X10915420Y-13374174D02*
X10924944Y-13336079D01*
X10924944Y-13336079D02*
X10934467Y-13317031D01*
X10934467Y-13317031D02*
X10943991Y-13307508D01*
X10943991Y-13307508D02*
X10963039Y-13297984D01*
X11115420Y-13497984D02*
X11115420Y-13364650D01*
X11115420Y-13383698D02*
X11124944Y-13374174D01*
X11124944Y-13374174D02*
X11143991Y-13364650D01*
X11143991Y-13364650D02*
X11172563Y-13364650D01*
X11172563Y-13364650D02*
X11191610Y-13374174D01*
X11191610Y-13374174D02*
X11201134Y-13393222D01*
X11201134Y-13393222D02*
X11201134Y-13497984D01*
X11201134Y-13393222D02*
X11210658Y-13374174D01*
X11210658Y-13374174D02*
X11229705Y-13364650D01*
X11229705Y-13364650D02*
X11258277Y-13364650D01*
X11258277Y-13364650D02*
X11277324Y-13374174D01*
X11277324Y-13374174D02*
X11286848Y-13393222D01*
X11286848Y-13393222D02*
X11286848Y-13497984D01*
X11382086Y-13497984D02*
X11382086Y-13364650D01*
X11382086Y-13383698D02*
X11391610Y-13374174D01*
X11391610Y-13374174D02*
X11410658Y-13364650D01*
X11410658Y-13364650D02*
X11439229Y-13364650D01*
X11439229Y-13364650D02*
X11458277Y-13374174D01*
X11458277Y-13374174D02*
X11467801Y-13393222D01*
X11467801Y-13393222D02*
X11467801Y-13497984D01*
X11467801Y-13393222D02*
X11477324Y-13374174D01*
X11477324Y-13374174D02*
X11496372Y-13364650D01*
X11496372Y-13364650D02*
X11524943Y-13364650D01*
X11524943Y-13364650D02*
X11543991Y-13374174D01*
X11543991Y-13374174D02*
X11553515Y-13393222D01*
X11553515Y-13393222D02*
X11553515Y-13497984D01*
X11943991Y-13288460D02*
X11772563Y-13545603D01*
X12201134Y-13297984D02*
X12220182Y-13297984D01*
X12220182Y-13297984D02*
X12239229Y-13307508D01*
X12239229Y-13307508D02*
X12248753Y-13317031D01*
X12248753Y-13317031D02*
X12258277Y-13336079D01*
X12258277Y-13336079D02*
X12267801Y-13374174D01*
X12267801Y-13374174D02*
X12267801Y-13421793D01*
X12267801Y-13421793D02*
X12258277Y-13459888D01*
X12258277Y-13459888D02*
X12248753Y-13478936D01*
X12248753Y-13478936D02*
X12239229Y-13488460D01*
X12239229Y-13488460D02*
X12220182Y-13497984D01*
X12220182Y-13497984D02*
X12201134Y-13497984D01*
X12201134Y-13497984D02*
X12182086Y-13488460D01*
X12182086Y-13488460D02*
X12172563Y-13478936D01*
X12172563Y-13478936D02*
X12163039Y-13459888D01*
X12163039Y-13459888D02*
X12153515Y-13421793D01*
X12153515Y-13421793D02*
X12153515Y-13374174D01*
X12153515Y-13374174D02*
X12163039Y-13336079D01*
X12163039Y-13336079D02*
X12172563Y-13317031D01*
X12172563Y-13317031D02*
X12182086Y-13307508D01*
X12182086Y-13307508D02*
X12201134Y-13297984D01*
X12353515Y-13478936D02*
X12363039Y-13488460D01*
X12363039Y-13488460D02*
X12353515Y-13497984D01*
X12353515Y-13497984D02*
X12343991Y-13488460D01*
X12343991Y-13488460D02*
X12353515Y-13478936D01*
X12353515Y-13478936D02*
X12353515Y-13497984D01*
X12486848Y-13297984D02*
X12505896Y-13297984D01*
X12505896Y-13297984D02*
X12524944Y-13307508D01*
X12524944Y-13307508D02*
X12534467Y-13317031D01*
X12534467Y-13317031D02*
X12543991Y-13336079D01*
X12543991Y-13336079D02*
X12553515Y-13374174D01*
X12553515Y-13374174D02*
X12553515Y-13421793D01*
X12553515Y-13421793D02*
X12543991Y-13459888D01*
X12543991Y-13459888D02*
X12534467Y-13478936D01*
X12534467Y-13478936D02*
X12524944Y-13488460D01*
X12524944Y-13488460D02*
X12505896Y-13497984D01*
X12505896Y-13497984D02*
X12486848Y-13497984D01*
X12486848Y-13497984D02*
X12467801Y-13488460D01*
X12467801Y-13488460D02*
X12458277Y-13478936D01*
X12458277Y-13478936D02*
X12448753Y-13459888D01*
X12448753Y-13459888D02*
X12439229Y-13421793D01*
X12439229Y-13421793D02*
X12439229Y-13374174D01*
X12439229Y-13374174D02*
X12448753Y-13336079D01*
X12448753Y-13336079D02*
X12458277Y-13317031D01*
X12458277Y-13317031D02*
X12467801Y-13307508D01*
X12467801Y-13307508D02*
X12486848Y-13297984D01*
X12648753Y-13497984D02*
X12686848Y-13497984D01*
X12686848Y-13497984D02*
X12705896Y-13488460D01*
X12705896Y-13488460D02*
X12715420Y-13478936D01*
X12715420Y-13478936D02*
X12734467Y-13450365D01*
X12734467Y-13450365D02*
X12743991Y-13412269D01*
X12743991Y-13412269D02*
X12743991Y-13336079D01*
X12743991Y-13336079D02*
X12734467Y-13317031D01*
X12734467Y-13317031D02*
X12724944Y-13307508D01*
X12724944Y-13307508D02*
X12705896Y-13297984D01*
X12705896Y-13297984D02*
X12667801Y-13297984D01*
X12667801Y-13297984D02*
X12648753Y-13307508D01*
X12648753Y-13307508D02*
X12639229Y-13317031D01*
X12639229Y-13317031D02*
X12629706Y-13336079D01*
X12629706Y-13336079D02*
X12629706Y-13383698D01*
X12629706Y-13383698D02*
X12639229Y-13402746D01*
X12639229Y-13402746D02*
X12648753Y-13412269D01*
X12648753Y-13412269D02*
X12667801Y-13421793D01*
X12667801Y-13421793D02*
X12705896Y-13421793D01*
X12705896Y-13421793D02*
X12724944Y-13412269D01*
X12724944Y-13412269D02*
X12734467Y-13402746D01*
X12734467Y-13402746D02*
X12743991Y-13383698D01*
X12858277Y-13383698D02*
X12839229Y-13374174D01*
X12839229Y-13374174D02*
X12829706Y-13364650D01*
X12829706Y-13364650D02*
X12820182Y-13345603D01*
X12820182Y-13345603D02*
X12820182Y-13336079D01*
X12820182Y-13336079D02*
X12829706Y-13317031D01*
X12829706Y-13317031D02*
X12839229Y-13307508D01*
X12839229Y-13307508D02*
X12858277Y-13297984D01*
X12858277Y-13297984D02*
X12896372Y-13297984D01*
X12896372Y-13297984D02*
X12915420Y-13307508D01*
X12915420Y-13307508D02*
X12924944Y-13317031D01*
X12924944Y-13317031D02*
X12934467Y-13336079D01*
X12934467Y-13336079D02*
X12934467Y-13345603D01*
X12934467Y-13345603D02*
X12924944Y-13364650D01*
X12924944Y-13364650D02*
X12915420Y-13374174D01*
X12915420Y-13374174D02*
X12896372Y-13383698D01*
X12896372Y-13383698D02*
X12858277Y-13383698D01*
X12858277Y-13383698D02*
X12839229Y-13393222D01*
X12839229Y-13393222D02*
X12829706Y-13402746D01*
X12829706Y-13402746D02*
X12820182Y-13421793D01*
X12820182Y-13421793D02*
X12820182Y-13459888D01*
X12820182Y-13459888D02*
X12829706Y-13478936D01*
X12829706Y-13478936D02*
X12839229Y-13488460D01*
X12839229Y-13488460D02*
X12858277Y-13497984D01*
X12858277Y-13497984D02*
X12896372Y-13497984D01*
X12896372Y-13497984D02*
X12915420Y-13488460D01*
X12915420Y-13488460D02*
X12924944Y-13478936D01*
X12924944Y-13478936D02*
X12934467Y-13459888D01*
X12934467Y-13459888D02*
X12934467Y-13421793D01*
X12934467Y-13421793D02*
X12924944Y-13402746D01*
X12924944Y-13402746D02*
X12915420Y-13393222D01*
X12915420Y-13393222D02*
X12896372Y-13383698D01*
X13105896Y-13364650D02*
X13105896Y-13497984D01*
X13058277Y-13288460D02*
X13010658Y-13431317D01*
X13010658Y-13431317D02*
X13134467Y-13431317D01*
X13201134Y-13297984D02*
X13201134Y-13336079D01*
X13277325Y-13297984D02*
X13277325Y-13336079D01*
X13572563Y-13574174D02*
X13563039Y-13564650D01*
X13563039Y-13564650D02*
X13543991Y-13536079D01*
X13543991Y-13536079D02*
X13534468Y-13517031D01*
X13534468Y-13517031D02*
X13524944Y-13488460D01*
X13524944Y-13488460D02*
X13515420Y-13440841D01*
X13515420Y-13440841D02*
X13515420Y-13402746D01*
X13515420Y-13402746D02*
X13524944Y-13355127D01*
X13524944Y-13355127D02*
X13534468Y-13326555D01*
X13534468Y-13326555D02*
X13543991Y-13307508D01*
X13543991Y-13307508D02*
X13563039Y-13278936D01*
X13563039Y-13278936D02*
X13572563Y-13269412D01*
X13753515Y-13497984D02*
X13639229Y-13497984D01*
X13696372Y-13497984D02*
X13696372Y-13297984D01*
X13696372Y-13297984D02*
X13677325Y-13326555D01*
X13677325Y-13326555D02*
X13658277Y-13345603D01*
X13658277Y-13345603D02*
X13639229Y-13355127D01*
X13943991Y-13497984D02*
X13829706Y-13497984D01*
X13886848Y-13497984D02*
X13886848Y-13297984D01*
X13886848Y-13297984D02*
X13867801Y-13326555D01*
X13867801Y-13326555D02*
X13848753Y-13345603D01*
X13848753Y-13345603D02*
X13829706Y-13355127D01*
X14182087Y-13497984D02*
X14182087Y-13297984D01*
X14267801Y-13497984D02*
X14267801Y-13393222D01*
X14267801Y-13393222D02*
X14258277Y-13374174D01*
X14258277Y-13374174D02*
X14239230Y-13364650D01*
X14239230Y-13364650D02*
X14210658Y-13364650D01*
X14210658Y-13364650D02*
X14191610Y-13374174D01*
X14191610Y-13374174D02*
X14182087Y-13383698D01*
X14391610Y-13497984D02*
X14372563Y-13488460D01*
X14372563Y-13488460D02*
X14363039Y-13478936D01*
X14363039Y-13478936D02*
X14353515Y-13459888D01*
X14353515Y-13459888D02*
X14353515Y-13402746D01*
X14353515Y-13402746D02*
X14363039Y-13383698D01*
X14363039Y-13383698D02*
X14372563Y-13374174D01*
X14372563Y-13374174D02*
X14391610Y-13364650D01*
X14391610Y-13364650D02*
X14420182Y-13364650D01*
X14420182Y-13364650D02*
X14439230Y-13374174D01*
X14439230Y-13374174D02*
X14448753Y-13383698D01*
X14448753Y-13383698D02*
X14458277Y-13402746D01*
X14458277Y-13402746D02*
X14458277Y-13459888D01*
X14458277Y-13459888D02*
X14448753Y-13478936D01*
X14448753Y-13478936D02*
X14439230Y-13488460D01*
X14439230Y-13488460D02*
X14420182Y-13497984D01*
X14420182Y-13497984D02*
X14391610Y-13497984D01*
X14572563Y-13497984D02*
X14553515Y-13488460D01*
X14553515Y-13488460D02*
X14543991Y-13469412D01*
X14543991Y-13469412D02*
X14543991Y-13297984D01*
X14724944Y-13488460D02*
X14705896Y-13497984D01*
X14705896Y-13497984D02*
X14667801Y-13497984D01*
X14667801Y-13497984D02*
X14648753Y-13488460D01*
X14648753Y-13488460D02*
X14639230Y-13469412D01*
X14639230Y-13469412D02*
X14639230Y-13393222D01*
X14639230Y-13393222D02*
X14648753Y-13374174D01*
X14648753Y-13374174D02*
X14667801Y-13364650D01*
X14667801Y-13364650D02*
X14705896Y-13364650D01*
X14705896Y-13364650D02*
X14724944Y-13374174D01*
X14724944Y-13374174D02*
X14734468Y-13393222D01*
X14734468Y-13393222D02*
X14734468Y-13412269D01*
X14734468Y-13412269D02*
X14639230Y-13431317D01*
X14810658Y-13488460D02*
X14829706Y-13497984D01*
X14829706Y-13497984D02*
X14867801Y-13497984D01*
X14867801Y-13497984D02*
X14886849Y-13488460D01*
X14886849Y-13488460D02*
X14896372Y-13469412D01*
X14896372Y-13469412D02*
X14896372Y-13459888D01*
X14896372Y-13459888D02*
X14886849Y-13440841D01*
X14886849Y-13440841D02*
X14867801Y-13431317D01*
X14867801Y-13431317D02*
X14839230Y-13431317D01*
X14839230Y-13431317D02*
X14820182Y-13421793D01*
X14820182Y-13421793D02*
X14810658Y-13402746D01*
X14810658Y-13402746D02*
X14810658Y-13393222D01*
X14810658Y-13393222D02*
X14820182Y-13374174D01*
X14820182Y-13374174D02*
X14839230Y-13364650D01*
X14839230Y-13364650D02*
X14867801Y-13364650D01*
X14867801Y-13364650D02*
X14886849Y-13374174D01*
X14963039Y-13574174D02*
X14972563Y-13564650D01*
X14972563Y-13564650D02*
X14991611Y-13536079D01*
X14991611Y-13536079D02*
X15001134Y-13517031D01*
X15001134Y-13517031D02*
X15010658Y-13488460D01*
X15010658Y-13488460D02*
X15020182Y-13440841D01*
X15020182Y-13440841D02*
X15020182Y-13402746D01*
X15020182Y-13402746D02*
X15010658Y-13355127D01*
X15010658Y-13355127D02*
X15001134Y-13326555D01*
X15001134Y-13326555D02*
X14991611Y-13307508D01*
X14991611Y-13307508D02*
X14972563Y-13278936D01*
X14972563Y-13278936D02*
X14963039Y-13269412D01*
X9897500Y-13626500D02*
X9897500Y-13826500D01*
X9797500Y-13726500D02*
X9997500Y-13726500D01*
X10239229Y-13617984D02*
X10363039Y-13617984D01*
X10363039Y-13617984D02*
X10296372Y-13694174D01*
X10296372Y-13694174D02*
X10324944Y-13694174D01*
X10324944Y-13694174D02*
X10343991Y-13703698D01*
X10343991Y-13703698D02*
X10353515Y-13713222D01*
X10353515Y-13713222D02*
X10363039Y-13732269D01*
X10363039Y-13732269D02*
X10363039Y-13779888D01*
X10363039Y-13779888D02*
X10353515Y-13798936D01*
X10353515Y-13798936D02*
X10343991Y-13808460D01*
X10343991Y-13808460D02*
X10324944Y-13817984D01*
X10324944Y-13817984D02*
X10267801Y-13817984D01*
X10267801Y-13817984D02*
X10248753Y-13808460D01*
X10248753Y-13808460D02*
X10239229Y-13798936D01*
X10448753Y-13798936D02*
X10458277Y-13808460D01*
X10458277Y-13808460D02*
X10448753Y-13817984D01*
X10448753Y-13817984D02*
X10439229Y-13808460D01*
X10439229Y-13808460D02*
X10448753Y-13798936D01*
X10448753Y-13798936D02*
X10448753Y-13817984D01*
X10534467Y-13637031D02*
X10543991Y-13627508D01*
X10543991Y-13627508D02*
X10563039Y-13617984D01*
X10563039Y-13617984D02*
X10610658Y-13617984D01*
X10610658Y-13617984D02*
X10629705Y-13627508D01*
X10629705Y-13627508D02*
X10639229Y-13637031D01*
X10639229Y-13637031D02*
X10648753Y-13656079D01*
X10648753Y-13656079D02*
X10648753Y-13675127D01*
X10648753Y-13675127D02*
X10639229Y-13703698D01*
X10639229Y-13703698D02*
X10524944Y-13817984D01*
X10524944Y-13817984D02*
X10648753Y-13817984D01*
X10772563Y-13617984D02*
X10791610Y-13617984D01*
X10791610Y-13617984D02*
X10810658Y-13627508D01*
X10810658Y-13627508D02*
X10820182Y-13637031D01*
X10820182Y-13637031D02*
X10829705Y-13656079D01*
X10829705Y-13656079D02*
X10839229Y-13694174D01*
X10839229Y-13694174D02*
X10839229Y-13741793D01*
X10839229Y-13741793D02*
X10829705Y-13779888D01*
X10829705Y-13779888D02*
X10820182Y-13798936D01*
X10820182Y-13798936D02*
X10810658Y-13808460D01*
X10810658Y-13808460D02*
X10791610Y-13817984D01*
X10791610Y-13817984D02*
X10772563Y-13817984D01*
X10772563Y-13817984D02*
X10753515Y-13808460D01*
X10753515Y-13808460D02*
X10743991Y-13798936D01*
X10743991Y-13798936D02*
X10734467Y-13779888D01*
X10734467Y-13779888D02*
X10724944Y-13741793D01*
X10724944Y-13741793D02*
X10724944Y-13694174D01*
X10724944Y-13694174D02*
X10734467Y-13656079D01*
X10734467Y-13656079D02*
X10743991Y-13637031D01*
X10743991Y-13637031D02*
X10753515Y-13627508D01*
X10753515Y-13627508D02*
X10772563Y-13617984D01*
X10963039Y-13617984D02*
X10982086Y-13617984D01*
X10982086Y-13617984D02*
X11001134Y-13627508D01*
X11001134Y-13627508D02*
X11010658Y-13637031D01*
X11010658Y-13637031D02*
X11020182Y-13656079D01*
X11020182Y-13656079D02*
X11029705Y-13694174D01*
X11029705Y-13694174D02*
X11029705Y-13741793D01*
X11029705Y-13741793D02*
X11020182Y-13779888D01*
X11020182Y-13779888D02*
X11010658Y-13798936D01*
X11010658Y-13798936D02*
X11001134Y-13808460D01*
X11001134Y-13808460D02*
X10982086Y-13817984D01*
X10982086Y-13817984D02*
X10963039Y-13817984D01*
X10963039Y-13817984D02*
X10943991Y-13808460D01*
X10943991Y-13808460D02*
X10934467Y-13798936D01*
X10934467Y-13798936D02*
X10924944Y-13779888D01*
X10924944Y-13779888D02*
X10915420Y-13741793D01*
X10915420Y-13741793D02*
X10915420Y-13694174D01*
X10915420Y-13694174D02*
X10924944Y-13656079D01*
X10924944Y-13656079D02*
X10934467Y-13637031D01*
X10934467Y-13637031D02*
X10943991Y-13627508D01*
X10943991Y-13627508D02*
X10963039Y-13617984D01*
X11115420Y-13817984D02*
X11115420Y-13684650D01*
X11115420Y-13703698D02*
X11124944Y-13694174D01*
X11124944Y-13694174D02*
X11143991Y-13684650D01*
X11143991Y-13684650D02*
X11172563Y-13684650D01*
X11172563Y-13684650D02*
X11191610Y-13694174D01*
X11191610Y-13694174D02*
X11201134Y-13713222D01*
X11201134Y-13713222D02*
X11201134Y-13817984D01*
X11201134Y-13713222D02*
X11210658Y-13694174D01*
X11210658Y-13694174D02*
X11229705Y-13684650D01*
X11229705Y-13684650D02*
X11258277Y-13684650D01*
X11258277Y-13684650D02*
X11277324Y-13694174D01*
X11277324Y-13694174D02*
X11286848Y-13713222D01*
X11286848Y-13713222D02*
X11286848Y-13817984D01*
X11382086Y-13817984D02*
X11382086Y-13684650D01*
X11382086Y-13703698D02*
X11391610Y-13694174D01*
X11391610Y-13694174D02*
X11410658Y-13684650D01*
X11410658Y-13684650D02*
X11439229Y-13684650D01*
X11439229Y-13684650D02*
X11458277Y-13694174D01*
X11458277Y-13694174D02*
X11467801Y-13713222D01*
X11467801Y-13713222D02*
X11467801Y-13817984D01*
X11467801Y-13713222D02*
X11477324Y-13694174D01*
X11477324Y-13694174D02*
X11496372Y-13684650D01*
X11496372Y-13684650D02*
X11524943Y-13684650D01*
X11524943Y-13684650D02*
X11543991Y-13694174D01*
X11543991Y-13694174D02*
X11553515Y-13713222D01*
X11553515Y-13713222D02*
X11553515Y-13817984D01*
X11943991Y-13608460D02*
X11772563Y-13865603D01*
X12201134Y-13617984D02*
X12220182Y-13617984D01*
X12220182Y-13617984D02*
X12239229Y-13627508D01*
X12239229Y-13627508D02*
X12248753Y-13637031D01*
X12248753Y-13637031D02*
X12258277Y-13656079D01*
X12258277Y-13656079D02*
X12267801Y-13694174D01*
X12267801Y-13694174D02*
X12267801Y-13741793D01*
X12267801Y-13741793D02*
X12258277Y-13779888D01*
X12258277Y-13779888D02*
X12248753Y-13798936D01*
X12248753Y-13798936D02*
X12239229Y-13808460D01*
X12239229Y-13808460D02*
X12220182Y-13817984D01*
X12220182Y-13817984D02*
X12201134Y-13817984D01*
X12201134Y-13817984D02*
X12182086Y-13808460D01*
X12182086Y-13808460D02*
X12172563Y-13798936D01*
X12172563Y-13798936D02*
X12163039Y-13779888D01*
X12163039Y-13779888D02*
X12153515Y-13741793D01*
X12153515Y-13741793D02*
X12153515Y-13694174D01*
X12153515Y-13694174D02*
X12163039Y-13656079D01*
X12163039Y-13656079D02*
X12172563Y-13637031D01*
X12172563Y-13637031D02*
X12182086Y-13627508D01*
X12182086Y-13627508D02*
X12201134Y-13617984D01*
X12353515Y-13798936D02*
X12363039Y-13808460D01*
X12363039Y-13808460D02*
X12353515Y-13817984D01*
X12353515Y-13817984D02*
X12343991Y-13808460D01*
X12343991Y-13808460D02*
X12353515Y-13798936D01*
X12353515Y-13798936D02*
X12353515Y-13817984D01*
X12553515Y-13817984D02*
X12439229Y-13817984D01*
X12496372Y-13817984D02*
X12496372Y-13617984D01*
X12496372Y-13617984D02*
X12477325Y-13646555D01*
X12477325Y-13646555D02*
X12458277Y-13665603D01*
X12458277Y-13665603D02*
X12439229Y-13675127D01*
X12629706Y-13637031D02*
X12639229Y-13627508D01*
X12639229Y-13627508D02*
X12658277Y-13617984D01*
X12658277Y-13617984D02*
X12705896Y-13617984D01*
X12705896Y-13617984D02*
X12724944Y-13627508D01*
X12724944Y-13627508D02*
X12734467Y-13637031D01*
X12734467Y-13637031D02*
X12743991Y-13656079D01*
X12743991Y-13656079D02*
X12743991Y-13675127D01*
X12743991Y-13675127D02*
X12734467Y-13703698D01*
X12734467Y-13703698D02*
X12620182Y-13817984D01*
X12620182Y-13817984D02*
X12743991Y-13817984D01*
X12915420Y-13617984D02*
X12877325Y-13617984D01*
X12877325Y-13617984D02*
X12858277Y-13627508D01*
X12858277Y-13627508D02*
X12848753Y-13637031D01*
X12848753Y-13637031D02*
X12829706Y-13665603D01*
X12829706Y-13665603D02*
X12820182Y-13703698D01*
X12820182Y-13703698D02*
X12820182Y-13779888D01*
X12820182Y-13779888D02*
X12829706Y-13798936D01*
X12829706Y-13798936D02*
X12839229Y-13808460D01*
X12839229Y-13808460D02*
X12858277Y-13817984D01*
X12858277Y-13817984D02*
X12896372Y-13817984D01*
X12896372Y-13817984D02*
X12915420Y-13808460D01*
X12915420Y-13808460D02*
X12924944Y-13798936D01*
X12924944Y-13798936D02*
X12934467Y-13779888D01*
X12934467Y-13779888D02*
X12934467Y-13732269D01*
X12934467Y-13732269D02*
X12924944Y-13713222D01*
X12924944Y-13713222D02*
X12915420Y-13703698D01*
X12915420Y-13703698D02*
X12896372Y-13694174D01*
X12896372Y-13694174D02*
X12858277Y-13694174D01*
X12858277Y-13694174D02*
X12839229Y-13703698D01*
X12839229Y-13703698D02*
X12829706Y-13713222D01*
X12829706Y-13713222D02*
X12820182Y-13732269D01*
X13058277Y-13617984D02*
X13077325Y-13617984D01*
X13077325Y-13617984D02*
X13096372Y-13627508D01*
X13096372Y-13627508D02*
X13105896Y-13637031D01*
X13105896Y-13637031D02*
X13115420Y-13656079D01*
X13115420Y-13656079D02*
X13124944Y-13694174D01*
X13124944Y-13694174D02*
X13124944Y-13741793D01*
X13124944Y-13741793D02*
X13115420Y-13779888D01*
X13115420Y-13779888D02*
X13105896Y-13798936D01*
X13105896Y-13798936D02*
X13096372Y-13808460D01*
X13096372Y-13808460D02*
X13077325Y-13817984D01*
X13077325Y-13817984D02*
X13058277Y-13817984D01*
X13058277Y-13817984D02*
X13039229Y-13808460D01*
X13039229Y-13808460D02*
X13029706Y-13798936D01*
X13029706Y-13798936D02*
X13020182Y-13779888D01*
X13020182Y-13779888D02*
X13010658Y-13741793D01*
X13010658Y-13741793D02*
X13010658Y-13694174D01*
X13010658Y-13694174D02*
X13020182Y-13656079D01*
X13020182Y-13656079D02*
X13029706Y-13637031D01*
X13029706Y-13637031D02*
X13039229Y-13627508D01*
X13039229Y-13627508D02*
X13058277Y-13617984D01*
X13201134Y-13617984D02*
X13201134Y-13656079D01*
X13277325Y-13617984D02*
X13277325Y-13656079D01*
X13572563Y-13894174D02*
X13563039Y-13884650D01*
X13563039Y-13884650D02*
X13543991Y-13856079D01*
X13543991Y-13856079D02*
X13534468Y-13837031D01*
X13534468Y-13837031D02*
X13524944Y-13808460D01*
X13524944Y-13808460D02*
X13515420Y-13760841D01*
X13515420Y-13760841D02*
X13515420Y-13722746D01*
X13515420Y-13722746D02*
X13524944Y-13675127D01*
X13524944Y-13675127D02*
X13534468Y-13646555D01*
X13534468Y-13646555D02*
X13543991Y-13627508D01*
X13543991Y-13627508D02*
X13563039Y-13598936D01*
X13563039Y-13598936D02*
X13572563Y-13589412D01*
X13639229Y-13637031D02*
X13648753Y-13627508D01*
X13648753Y-13627508D02*
X13667801Y-13617984D01*
X13667801Y-13617984D02*
X13715420Y-13617984D01*
X13715420Y-13617984D02*
X13734468Y-13627508D01*
X13734468Y-13627508D02*
X13743991Y-13637031D01*
X13743991Y-13637031D02*
X13753515Y-13656079D01*
X13753515Y-13656079D02*
X13753515Y-13675127D01*
X13753515Y-13675127D02*
X13743991Y-13703698D01*
X13743991Y-13703698D02*
X13629706Y-13817984D01*
X13629706Y-13817984D02*
X13753515Y-13817984D01*
X13991610Y-13817984D02*
X13991610Y-13617984D01*
X14077325Y-13817984D02*
X14077325Y-13713222D01*
X14077325Y-13713222D02*
X14067801Y-13694174D01*
X14067801Y-13694174D02*
X14048753Y-13684650D01*
X14048753Y-13684650D02*
X14020182Y-13684650D01*
X14020182Y-13684650D02*
X14001134Y-13694174D01*
X14001134Y-13694174D02*
X13991610Y-13703698D01*
X14201134Y-13817984D02*
X14182087Y-13808460D01*
X14182087Y-13808460D02*
X14172563Y-13798936D01*
X14172563Y-13798936D02*
X14163039Y-13779888D01*
X14163039Y-13779888D02*
X14163039Y-13722746D01*
X14163039Y-13722746D02*
X14172563Y-13703698D01*
X14172563Y-13703698D02*
X14182087Y-13694174D01*
X14182087Y-13694174D02*
X14201134Y-13684650D01*
X14201134Y-13684650D02*
X14229706Y-13684650D01*
X14229706Y-13684650D02*
X14248753Y-13694174D01*
X14248753Y-13694174D02*
X14258277Y-13703698D01*
X14258277Y-13703698D02*
X14267801Y-13722746D01*
X14267801Y-13722746D02*
X14267801Y-13779888D01*
X14267801Y-13779888D02*
X14258277Y-13798936D01*
X14258277Y-13798936D02*
X14248753Y-13808460D01*
X14248753Y-13808460D02*
X14229706Y-13817984D01*
X14229706Y-13817984D02*
X14201134Y-13817984D01*
X14382087Y-13817984D02*
X14363039Y-13808460D01*
X14363039Y-13808460D02*
X14353515Y-13789412D01*
X14353515Y-13789412D02*
X14353515Y-13617984D01*
X14534468Y-13808460D02*
X14515420Y-13817984D01*
X14515420Y-13817984D02*
X14477325Y-13817984D01*
X14477325Y-13817984D02*
X14458277Y-13808460D01*
X14458277Y-13808460D02*
X14448753Y-13789412D01*
X14448753Y-13789412D02*
X14448753Y-13713222D01*
X14448753Y-13713222D02*
X14458277Y-13694174D01*
X14458277Y-13694174D02*
X14477325Y-13684650D01*
X14477325Y-13684650D02*
X14515420Y-13684650D01*
X14515420Y-13684650D02*
X14534468Y-13694174D01*
X14534468Y-13694174D02*
X14543991Y-13713222D01*
X14543991Y-13713222D02*
X14543991Y-13732269D01*
X14543991Y-13732269D02*
X14448753Y-13751317D01*
X14620182Y-13808460D02*
X14639230Y-13817984D01*
X14639230Y-13817984D02*
X14677325Y-13817984D01*
X14677325Y-13817984D02*
X14696372Y-13808460D01*
X14696372Y-13808460D02*
X14705896Y-13789412D01*
X14705896Y-13789412D02*
X14705896Y-13779888D01*
X14705896Y-13779888D02*
X14696372Y-13760841D01*
X14696372Y-13760841D02*
X14677325Y-13751317D01*
X14677325Y-13751317D02*
X14648753Y-13751317D01*
X14648753Y-13751317D02*
X14629706Y-13741793D01*
X14629706Y-13741793D02*
X14620182Y-13722746D01*
X14620182Y-13722746D02*
X14620182Y-13713222D01*
X14620182Y-13713222D02*
X14629706Y-13694174D01*
X14629706Y-13694174D02*
X14648753Y-13684650D01*
X14648753Y-13684650D02*
X14677325Y-13684650D01*
X14677325Y-13684650D02*
X14696372Y-13694174D01*
X14772563Y-13894174D02*
X14782087Y-13884650D01*
X14782087Y-13884650D02*
X14801134Y-13856079D01*
X14801134Y-13856079D02*
X14810658Y-13837031D01*
X14810658Y-13837031D02*
X14820182Y-13808460D01*
X14820182Y-13808460D02*
X14829706Y-13760841D01*
X14829706Y-13760841D02*
X14829706Y-13722746D01*
X14829706Y-13722746D02*
X14820182Y-13675127D01*
X14820182Y-13675127D02*
X14810658Y-13646555D01*
X14810658Y-13646555D02*
X14801134Y-13627508D01*
X14801134Y-13627508D02*
X14782087Y-13598936D01*
X14782087Y-13598936D02*
X14772563Y-13589412D01*
M02*
