G04 #@! TF.GenerationSoftware,KiCad,Pcbnew,9.0.0*
G04 #@! TF.CreationDate,2025-03-27T20:29:25-05:00*
G04 #@! TF.ProjectId,PD_Board_v2,50445f42-6f61-4726-945f-76322e6b6963,rev?*
G04 #@! TF.SameCoordinates,Original*
G04 #@! TF.FileFunction,Copper,L2,Bot*
G04 #@! TF.FilePolarity,Positive*
%FSLAX46Y46*%
G04 Gerber Fmt 4.6, Leading zero omitted, Abs format (unit mm)*
G04 Created by KiCad (PCBNEW 9.0.0) date 2025-03-27 20:29:25*
%MOMM*%
%LPD*%
G01*
G04 APERTURE LIST*
G04 Aperture macros list*
%AMRoundRect*
0 Rectangle with rounded corners*
0 $1 Rounding radius*
0 $2 $3 $4 $5 $6 $7 $8 $9 X,Y pos of 4 corners*
0 Add a 4 corners polygon primitive as box body*
4,1,4,$2,$3,$4,$5,$6,$7,$8,$9,$2,$3,0*
0 Add four circle primitives for the rounded corners*
1,1,$1+$1,$2,$3*
1,1,$1+$1,$4,$5*
1,1,$1+$1,$6,$7*
1,1,$1+$1,$8,$9*
0 Add four rect primitives between the rounded corners*
20,1,$1+$1,$2,$3,$4,$5,0*
20,1,$1+$1,$4,$5,$6,$7,0*
20,1,$1+$1,$6,$7,$8,$9,0*
20,1,$1+$1,$8,$9,$2,$3,0*%
G04 Aperture macros list end*
G04 #@! TA.AperFunction,ComponentPad*
%ADD10RoundRect,0.250000X-1.250000X2.250000X-1.250000X-2.250000X1.250000X-2.250000X1.250000X2.250000X0*%
G04 #@! TD*
G04 #@! TA.AperFunction,ComponentPad*
%ADD11RoundRect,0.250000X-2.250000X-1.250000X2.250000X-1.250000X2.250000X1.250000X-2.250000X1.250000X0*%
G04 #@! TD*
G04 #@! TA.AperFunction,ComponentPad*
%ADD12RoundRect,0.750000X0.750000X-1.750000X0.750000X1.750000X-0.750000X1.750000X-0.750000X-1.750000X0*%
G04 #@! TD*
G04 #@! TA.AperFunction,ComponentPad*
%ADD13R,1.700000X1.700000*%
G04 #@! TD*
G04 #@! TA.AperFunction,ComponentPad*
%ADD14O,1.700000X1.700000*%
G04 #@! TD*
G04 #@! TA.AperFunction,Conductor*
%ADD15C,0.700000*%
G04 #@! TD*
G04 APERTURE END LIST*
D10*
X190400000Y-89500000D03*
X186900000Y-89500000D03*
X183400000Y-89500000D03*
X190400000Y-112000000D03*
X186900000Y-112000000D03*
X183400000Y-112000000D03*
D11*
X203550000Y-97250000D03*
X203550000Y-100750000D03*
X203550000Y-104250000D03*
D12*
X116250000Y-105000000D03*
X121250000Y-105000000D03*
D11*
X96950000Y-97250000D03*
X96950000Y-100750000D03*
X96950000Y-104250000D03*
D13*
X187835000Y-104350000D03*
D14*
X190375000Y-104350000D03*
X192915000Y-104350000D03*
D13*
X182720000Y-96950000D03*
D14*
X185260000Y-96950000D03*
X187800000Y-96950000D03*
D15*
X187800000Y-96950000D02*
X190400000Y-94350000D01*
X190400000Y-94350000D02*
X190400000Y-89500000D01*
X187800000Y-96950000D02*
X187800000Y-96445000D01*
X203250000Y-96950000D02*
X203550000Y-97250000D01*
X190375000Y-104350000D02*
X190375000Y-111975000D01*
X190375000Y-111975000D02*
X190400000Y-112000000D01*
G04 #@! TA.AperFunction,Conductor*
G36*
X191253472Y-86050686D02*
G01*
X191271439Y-86051695D01*
X191337269Y-86075108D01*
X191379991Y-86130394D01*
X191386041Y-86200001D01*
X191353498Y-86261829D01*
X191292695Y-86296249D01*
X191264486Y-86299500D01*
X189094862Y-86299500D01*
X189082599Y-86300590D01*
X188981451Y-86309582D01*
X188795594Y-86362762D01*
X188624250Y-86452265D01*
X188474428Y-86574428D01*
X188352265Y-86724250D01*
X188262762Y-86895594D01*
X188209582Y-87081451D01*
X188199500Y-87194863D01*
X188199500Y-91805136D01*
X188209582Y-91918548D01*
X188262762Y-92104405D01*
X188262763Y-92104406D01*
X188352266Y-92275751D01*
X188396427Y-92329910D01*
X188474428Y-92425571D01*
X188549339Y-92486652D01*
X188624249Y-92547734D01*
X188795594Y-92637237D01*
X188981448Y-92690417D01*
X189094862Y-92700500D01*
X189225500Y-92700500D01*
X189292539Y-92720185D01*
X189338294Y-92772989D01*
X189349500Y-92824500D01*
X189349500Y-93863507D01*
X189329815Y-93930546D01*
X189313181Y-93951188D01*
X187906188Y-95358181D01*
X187882487Y-95371122D01*
X187860710Y-95387097D01*
X187849693Y-95389029D01*
X187844865Y-95391666D01*
X187826151Y-95394264D01*
X187822330Y-95394500D01*
X187696535Y-95394500D01*
X187645700Y-95404611D01*
X187637445Y-95405918D01*
X187637436Y-95405919D01*
X187436926Y-95437678D01*
X187204812Y-95513097D01*
X186987357Y-95623896D01*
X186789923Y-95767339D01*
X186789918Y-95767343D01*
X186617681Y-95939581D01*
X186556358Y-95973066D01*
X186486666Y-95968082D01*
X186442319Y-95939581D01*
X186270081Y-95767343D01*
X186270076Y-95767339D01*
X186072642Y-95623896D01*
X186072641Y-95623895D01*
X186072639Y-95623894D01*
X185855185Y-95513096D01*
X185623076Y-95437679D01*
X185623074Y-95437678D01*
X185623072Y-95437678D01*
X185422554Y-95405919D01*
X185382027Y-95399500D01*
X185137973Y-95399500D01*
X185105704Y-95404611D01*
X184896927Y-95437678D01*
X184664812Y-95513097D01*
X184447357Y-95623896D01*
X184315699Y-95719551D01*
X184249893Y-95743031D01*
X184181839Y-95727205D01*
X184136697Y-95683382D01*
X184125474Y-95664817D01*
X184125471Y-95664813D01*
X184005188Y-95544530D01*
X183888931Y-95474250D01*
X183859606Y-95456522D01*
X183697196Y-95405914D01*
X183697194Y-95405913D01*
X183697192Y-95405913D01*
X183647778Y-95401423D01*
X183626616Y-95399500D01*
X181813384Y-95399500D01*
X181794145Y-95401248D01*
X181742807Y-95405913D01*
X181580393Y-95456522D01*
X181434811Y-95544530D01*
X181314530Y-95664811D01*
X181226522Y-95810393D01*
X181175913Y-95972807D01*
X181169500Y-96043386D01*
X181169500Y-97856613D01*
X181175913Y-97927192D01*
X181175913Y-97927194D01*
X181175914Y-97927196D01*
X181186160Y-97960076D01*
X181226522Y-98089606D01*
X181314530Y-98235188D01*
X181434811Y-98355469D01*
X181434813Y-98355470D01*
X181434815Y-98355472D01*
X181580394Y-98443478D01*
X181742804Y-98494086D01*
X181813384Y-98500500D01*
X181813387Y-98500500D01*
X183626613Y-98500500D01*
X183626616Y-98500500D01*
X183697196Y-98494086D01*
X183859606Y-98443478D01*
X184005185Y-98355472D01*
X184125472Y-98235185D01*
X184136694Y-98216620D01*
X184188220Y-98169431D01*
X184257079Y-98157590D01*
X184315698Y-98180449D01*
X184447356Y-98276103D01*
X184447358Y-98276104D01*
X184447361Y-98276106D01*
X184664815Y-98386904D01*
X184896924Y-98462321D01*
X185137973Y-98500500D01*
X185137974Y-98500500D01*
X185382026Y-98500500D01*
X185382027Y-98500500D01*
X185623076Y-98462321D01*
X185855185Y-98386904D01*
X186072639Y-98276106D01*
X186270083Y-98132655D01*
X186442319Y-97960419D01*
X186503642Y-97926934D01*
X186573334Y-97931918D01*
X186617681Y-97960419D01*
X186789918Y-98132656D01*
X186789923Y-98132660D01*
X186931032Y-98235181D01*
X186987361Y-98276106D01*
X187204815Y-98386904D01*
X187436924Y-98462321D01*
X187677973Y-98500500D01*
X187677974Y-98500500D01*
X187922026Y-98500500D01*
X187922027Y-98500500D01*
X188163076Y-98462321D01*
X188395185Y-98386904D01*
X188612639Y-98276106D01*
X188810083Y-98132655D01*
X188982655Y-97960083D01*
X189126106Y-97762639D01*
X189236904Y-97545185D01*
X189312321Y-97313076D01*
X189350500Y-97072027D01*
X189350500Y-96936492D01*
X189370185Y-96869453D01*
X189386814Y-96848816D01*
X190290767Y-95944863D01*
X200349500Y-95944863D01*
X200349500Y-98555136D01*
X200359582Y-98668548D01*
X200412762Y-98854405D01*
X200412763Y-98854406D01*
X200502266Y-99025751D01*
X200549518Y-99083700D01*
X200624428Y-99175571D01*
X200699339Y-99236652D01*
X200774249Y-99297734D01*
X200945594Y-99387237D01*
X201131448Y-99440417D01*
X201244862Y-99450500D01*
X201244870Y-99450500D01*
X205855130Y-99450500D01*
X205855138Y-99450500D01*
X205968552Y-99440417D01*
X206154406Y-99387237D01*
X206325751Y-99297734D01*
X206475571Y-99175571D01*
X206597734Y-99025751D01*
X206687237Y-98854406D01*
X206740417Y-98668552D01*
X206750500Y-98555138D01*
X206750500Y-95944862D01*
X206740417Y-95831448D01*
X206687237Y-95645594D01*
X206597734Y-95474249D01*
X206528246Y-95389029D01*
X206475571Y-95324428D01*
X206383700Y-95249518D01*
X206325751Y-95202266D01*
X206269820Y-95173050D01*
X206154405Y-95112762D01*
X205989538Y-95065588D01*
X205968552Y-95059583D01*
X205968551Y-95059582D01*
X205968548Y-95059582D01*
X205879662Y-95051680D01*
X205855138Y-95049500D01*
X201244862Y-95049500D01*
X201232599Y-95050590D01*
X201131451Y-95059582D01*
X200945594Y-95112762D01*
X200774250Y-95202265D01*
X200624428Y-95324428D01*
X200502265Y-95474250D01*
X200412762Y-95645594D01*
X200359582Y-95831451D01*
X200349500Y-95944863D01*
X190290767Y-95944863D01*
X191069651Y-95165979D01*
X191069655Y-95165977D01*
X191215977Y-95019655D01*
X191330941Y-94847598D01*
X191410130Y-94656420D01*
X191450500Y-94453465D01*
X191450500Y-92824500D01*
X191470185Y-92757461D01*
X191522989Y-92711706D01*
X191574500Y-92700500D01*
X191705130Y-92700500D01*
X191705138Y-92700500D01*
X191818552Y-92690417D01*
X192004406Y-92637237D01*
X192175751Y-92547734D01*
X192325571Y-92425571D01*
X192447734Y-92275751D01*
X192537237Y-92104406D01*
X192590417Y-91918552D01*
X192600500Y-91805138D01*
X192600500Y-87194862D01*
X192590417Y-87081448D01*
X192537237Y-86895594D01*
X192447734Y-86724249D01*
X192378579Y-86639438D01*
X192325571Y-86574428D01*
X192242152Y-86506409D01*
X192232265Y-86491993D01*
X192218657Y-86481027D01*
X192212916Y-86463779D01*
X192202635Y-86448788D01*
X192202111Y-86431316D01*
X192196592Y-86414733D01*
X192201087Y-86397120D01*
X192200543Y-86378949D01*
X192209548Y-86363967D01*
X192213871Y-86347034D01*
X192227174Y-86334647D01*
X192236541Y-86319067D01*
X192252215Y-86311333D01*
X192265008Y-86299423D01*
X192282897Y-86296195D01*
X192299200Y-86288152D01*
X192316740Y-86290089D01*
X192333768Y-86287017D01*
X192367962Y-86295745D01*
X192414845Y-86315164D01*
X192427359Y-86321190D01*
X192533110Y-86379637D01*
X192680130Y-86460892D01*
X192691904Y-86468290D01*
X192745628Y-86506409D01*
X192927446Y-86635415D01*
X192938314Y-86644083D01*
X193153643Y-86836514D01*
X193163476Y-86846346D01*
X193355920Y-87061691D01*
X193355926Y-87061697D01*
X193364590Y-87072563D01*
X193451371Y-87194869D01*
X193531706Y-87308089D01*
X193539105Y-87319863D01*
X193678806Y-87572634D01*
X193684839Y-87585162D01*
X193795355Y-87851972D01*
X193799948Y-87865097D01*
X193879899Y-88142613D01*
X193882993Y-88156170D01*
X193931368Y-88440885D01*
X193932925Y-88454703D01*
X193949315Y-88746551D01*
X193949510Y-88753504D01*
X193949510Y-90198638D01*
X193949509Y-90198641D01*
X193949509Y-90250001D01*
X193949509Y-90422972D01*
X193985670Y-90767020D01*
X193985671Y-90767024D01*
X194057594Y-91105398D01*
X194057595Y-91105399D01*
X194160228Y-91421274D01*
X194164498Y-91434414D01*
X194276613Y-91686227D01*
X194305206Y-91750448D01*
X194305209Y-91750454D01*
X194478174Y-92050039D01*
X194478177Y-92050044D01*
X194681511Y-92329910D01*
X194681518Y-92329919D01*
X194767644Y-92425571D01*
X194912998Y-92587002D01*
X195027852Y-92690417D01*
X195170075Y-92818476D01*
X195170081Y-92818480D01*
X195170084Y-92818483D01*
X195327064Y-92932536D01*
X195449957Y-93021823D01*
X195449958Y-93021824D01*
X195749544Y-93194790D01*
X195749553Y-93194795D01*
X196065587Y-93335502D01*
X196394598Y-93442404D01*
X196394601Y-93442404D01*
X196394602Y-93442405D01*
X196441224Y-93452314D01*
X196732981Y-93514330D01*
X197077029Y-93550491D01*
X197210440Y-93550491D01*
X206202407Y-93550491D01*
X206246519Y-93550491D01*
X206253472Y-93550686D01*
X206545307Y-93567075D01*
X206559105Y-93568629D01*
X206843830Y-93617006D01*
X206857384Y-93620099D01*
X207134916Y-93700056D01*
X207148013Y-93704639D01*
X207414845Y-93815164D01*
X207427359Y-93821190D01*
X207503925Y-93863507D01*
X207680130Y-93960892D01*
X207691904Y-93968290D01*
X207927446Y-94135415D01*
X207938314Y-94144083D01*
X208153643Y-94336514D01*
X208163476Y-94346346D01*
X208355926Y-94561697D01*
X208364592Y-94572565D01*
X208531709Y-94808094D01*
X208539102Y-94819859D01*
X208649526Y-95019655D01*
X208678806Y-95072634D01*
X208684839Y-95085162D01*
X208795355Y-95351972D01*
X208799948Y-95365097D01*
X208879899Y-95642613D01*
X208882993Y-95656170D01*
X208931368Y-95940885D01*
X208932925Y-95954703D01*
X208949315Y-96246551D01*
X208949510Y-96253504D01*
X208949510Y-105246520D01*
X208949315Y-105253473D01*
X208932926Y-105545297D01*
X208931369Y-105559115D01*
X208882993Y-105843830D01*
X208879899Y-105857387D01*
X208799948Y-106134903D01*
X208795355Y-106148027D01*
X208684839Y-106414838D01*
X208678806Y-106427367D01*
X208539108Y-106680130D01*
X208531710Y-106691904D01*
X208364592Y-106927436D01*
X208355922Y-106938308D01*
X208163482Y-107153649D01*
X208153649Y-107163482D01*
X207938303Y-107355927D01*
X207927431Y-107364596D01*
X207691911Y-107531707D01*
X207680137Y-107539106D01*
X207427366Y-107678807D01*
X207414837Y-107684840D01*
X207148026Y-107795356D01*
X207134902Y-107799949D01*
X206857386Y-107879900D01*
X206843829Y-107882994D01*
X206559115Y-107931369D01*
X206545297Y-107932926D01*
X206253449Y-107949316D01*
X206246496Y-107949511D01*
X197301363Y-107949511D01*
X197301360Y-107949510D01*
X197250000Y-107949510D01*
X197077029Y-107949510D01*
X196732981Y-107985671D01*
X196732976Y-107985671D01*
X196732976Y-107985672D01*
X196394602Y-108057595D01*
X196394601Y-108057596D01*
X196065594Y-108164496D01*
X195749551Y-108305207D01*
X195749545Y-108305210D01*
X195449962Y-108478174D01*
X195170075Y-108681524D01*
X194912998Y-108912999D01*
X194681523Y-109170076D01*
X194478173Y-109449963D01*
X194305211Y-109749543D01*
X194305208Y-109749548D01*
X194164496Y-110065595D01*
X194057596Y-110394602D01*
X194057595Y-110394603D01*
X193985672Y-110732977D01*
X193949510Y-111077034D01*
X193949510Y-112746520D01*
X193949315Y-112753473D01*
X193932926Y-113045297D01*
X193931369Y-113059115D01*
X193882993Y-113343830D01*
X193879899Y-113357387D01*
X193799948Y-113634903D01*
X193795355Y-113648027D01*
X193684839Y-113914838D01*
X193678806Y-113927367D01*
X193539108Y-114180130D01*
X193531710Y-114191904D01*
X193364592Y-114427436D01*
X193355922Y-114438308D01*
X193163482Y-114653649D01*
X193153649Y-114663482D01*
X192938303Y-114855927D01*
X192927431Y-114864596D01*
X192691911Y-115031707D01*
X192680137Y-115039106D01*
X192427366Y-115178807D01*
X192414838Y-115184840D01*
X192367961Y-115204257D01*
X192298491Y-115211726D01*
X192236012Y-115180451D01*
X192200360Y-115120362D01*
X192202854Y-115050537D01*
X192242148Y-114993594D01*
X192325569Y-114925573D01*
X192325571Y-114925571D01*
X192447734Y-114775751D01*
X192537237Y-114604406D01*
X192590417Y-114418552D01*
X192600500Y-114305138D01*
X192600500Y-109694862D01*
X192590417Y-109581448D01*
X192537237Y-109395594D01*
X192447734Y-109224249D01*
X192378579Y-109139438D01*
X192325571Y-109074428D01*
X192233700Y-108999518D01*
X192175751Y-108952266D01*
X192100578Y-108912999D01*
X192004405Y-108862762D01*
X191847360Y-108817826D01*
X191818552Y-108809583D01*
X191818551Y-108809582D01*
X191818548Y-108809582D01*
X191729662Y-108801680D01*
X191705138Y-108799500D01*
X191705136Y-108799500D01*
X191549500Y-108799500D01*
X191482461Y-108779815D01*
X191436706Y-108727011D01*
X191425500Y-108675500D01*
X191425500Y-105543600D01*
X191434144Y-105514159D01*
X191440668Y-105484173D01*
X191444422Y-105479157D01*
X191445185Y-105476561D01*
X191461819Y-105455919D01*
X191557319Y-105360419D01*
X191618642Y-105326934D01*
X191688334Y-105331918D01*
X191732681Y-105360419D01*
X191904918Y-105532656D01*
X191904923Y-105532660D01*
X192077136Y-105657779D01*
X192102361Y-105676106D01*
X192319815Y-105786904D01*
X192551924Y-105862321D01*
X192792973Y-105900500D01*
X192792974Y-105900500D01*
X193037026Y-105900500D01*
X193037027Y-105900500D01*
X193278076Y-105862321D01*
X193510185Y-105786904D01*
X193727639Y-105676106D01*
X193925083Y-105532655D01*
X194097655Y-105360083D01*
X194241106Y-105162639D01*
X194351904Y-104945185D01*
X194427321Y-104713076D01*
X194465500Y-104472027D01*
X194465500Y-104227973D01*
X194427321Y-103986924D01*
X194351904Y-103754815D01*
X194241106Y-103537361D01*
X194185000Y-103460137D01*
X194097660Y-103339923D01*
X194097656Y-103339918D01*
X193925081Y-103167343D01*
X193925076Y-103167339D01*
X193753154Y-103042431D01*
X193727642Y-103023896D01*
X193727641Y-103023895D01*
X193727639Y-103023894D01*
X193572531Y-102944863D01*
X200349500Y-102944863D01*
X200349500Y-105555136D01*
X200359582Y-105668548D01*
X200359582Y-105668551D01*
X200359583Y-105668552D01*
X200368537Y-105699845D01*
X200412762Y-105854405D01*
X200412763Y-105854406D01*
X200502266Y-106025751D01*
X200549518Y-106083700D01*
X200624428Y-106175571D01*
X200699339Y-106236652D01*
X200774249Y-106297734D01*
X200945594Y-106387237D01*
X201131448Y-106440417D01*
X201244862Y-106450500D01*
X201244870Y-106450500D01*
X205855130Y-106450500D01*
X205855138Y-106450500D01*
X205968552Y-106440417D01*
X206154406Y-106387237D01*
X206325751Y-106297734D01*
X206475571Y-106175571D01*
X206597734Y-106025751D01*
X206687237Y-105854406D01*
X206740417Y-105668552D01*
X206750500Y-105555138D01*
X206750500Y-102944862D01*
X206740417Y-102831448D01*
X206687237Y-102645594D01*
X206597734Y-102474249D01*
X206536652Y-102399339D01*
X206475571Y-102324428D01*
X206348514Y-102220827D01*
X206325751Y-102202266D01*
X206311082Y-102194604D01*
X206154405Y-102112762D01*
X205989115Y-102065467D01*
X205968552Y-102059583D01*
X205968551Y-102059582D01*
X205968548Y-102059582D01*
X205879662Y-102051680D01*
X205855138Y-102049500D01*
X201244862Y-102049500D01*
X201232599Y-102050590D01*
X201131451Y-102059582D01*
X200945594Y-102112762D01*
X200774250Y-102202265D01*
X200624428Y-102324428D01*
X200502265Y-102474250D01*
X200412762Y-102645594D01*
X200359582Y-102831451D01*
X200349500Y-102944863D01*
X193572531Y-102944863D01*
X193510185Y-102913096D01*
X193278076Y-102837679D01*
X193278074Y-102837678D01*
X193278072Y-102837678D01*
X193109769Y-102811021D01*
X193037027Y-102799500D01*
X192792973Y-102799500D01*
X192737093Y-102808350D01*
X192551927Y-102837678D01*
X192319812Y-102913097D01*
X192102357Y-103023896D01*
X191904923Y-103167339D01*
X191904918Y-103167343D01*
X191732681Y-103339581D01*
X191671358Y-103373066D01*
X191601666Y-103368082D01*
X191557319Y-103339581D01*
X191385081Y-103167343D01*
X191385076Y-103167339D01*
X191187642Y-103023896D01*
X191187641Y-103023895D01*
X191187639Y-103023894D01*
X190970185Y-102913096D01*
X190738076Y-102837679D01*
X190738074Y-102837678D01*
X190738072Y-102837678D01*
X190569769Y-102811021D01*
X190497027Y-102799500D01*
X190252973Y-102799500D01*
X190197093Y-102808350D01*
X190011927Y-102837678D01*
X189779812Y-102913097D01*
X189562357Y-103023896D01*
X189364923Y-103167339D01*
X189364918Y-103167343D01*
X189192343Y-103339918D01*
X189192339Y-103339923D01*
X189048896Y-103537357D01*
X188938097Y-103754812D01*
X188862678Y-103986927D01*
X188824500Y-104227973D01*
X188824500Y-104472026D01*
X188862678Y-104713072D01*
X188938097Y-104945187D01*
X189048896Y-105162642D01*
X189192339Y-105360076D01*
X189192343Y-105360081D01*
X189288181Y-105455919D01*
X189321666Y-105517242D01*
X189324500Y-105543600D01*
X189324500Y-108675500D01*
X189304815Y-108742539D01*
X189252011Y-108788294D01*
X189200500Y-108799500D01*
X189094862Y-108799500D01*
X189082599Y-108800590D01*
X188981451Y-108809582D01*
X188795594Y-108862762D01*
X188624250Y-108952265D01*
X188474428Y-109074428D01*
X188352265Y-109224250D01*
X188262762Y-109395594D01*
X188209582Y-109581451D01*
X188199500Y-109694863D01*
X188199500Y-114305136D01*
X188209582Y-114418548D01*
X188262762Y-114604405D01*
X188293622Y-114663483D01*
X188352266Y-114775751D01*
X188396432Y-114829916D01*
X188474428Y-114925571D01*
X188549339Y-114986652D01*
X188624249Y-115047734D01*
X188795594Y-115137237D01*
X188981448Y-115190417D01*
X189094862Y-115200500D01*
X189094870Y-115200500D01*
X191264499Y-115200500D01*
X191294813Y-115209401D01*
X191325584Y-115216590D01*
X191328088Y-115219172D01*
X191331538Y-115220185D01*
X191352220Y-115244054D01*
X191374228Y-115266745D01*
X191374938Y-115270272D01*
X191377293Y-115272989D01*
X191381789Y-115304259D01*
X191388033Y-115335237D01*
X191386725Y-115338586D01*
X191387237Y-115342147D01*
X191374107Y-115370896D01*
X191362617Y-115400321D01*
X191359706Y-115402431D01*
X191358212Y-115405703D01*
X191331629Y-115422786D01*
X191306050Y-115441331D01*
X191301275Y-115442293D01*
X191299434Y-115443477D01*
X191271452Y-115448305D01*
X191253449Y-115449316D01*
X191246496Y-115449511D01*
X182553481Y-115449511D01*
X182546528Y-115449316D01*
X182528525Y-115448305D01*
X182462695Y-115424893D01*
X182419973Y-115369606D01*
X182413923Y-115299999D01*
X182446465Y-115238171D01*
X182507269Y-115203751D01*
X182535478Y-115200500D01*
X184705130Y-115200500D01*
X184705138Y-115200500D01*
X184818552Y-115190417D01*
X185004406Y-115137237D01*
X185175751Y-115047734D01*
X185325571Y-114925571D01*
X185447734Y-114775751D01*
X185537237Y-114604406D01*
X185590417Y-114418552D01*
X185600500Y-114305138D01*
X185600500Y-109694862D01*
X185590417Y-109581448D01*
X185537237Y-109395594D01*
X185447734Y-109224249D01*
X185378579Y-109139438D01*
X185325571Y-109074428D01*
X185233700Y-108999518D01*
X185175751Y-108952266D01*
X185100578Y-108912999D01*
X185004405Y-108862762D01*
X184847360Y-108817826D01*
X184818552Y-108809583D01*
X184818551Y-108809582D01*
X184818548Y-108809582D01*
X184729662Y-108801680D01*
X184705138Y-108799500D01*
X182094862Y-108799500D01*
X182082599Y-108800590D01*
X181981451Y-108809582D01*
X181795594Y-108862762D01*
X181624250Y-108952265D01*
X181474428Y-109074428D01*
X181352265Y-109224250D01*
X181262762Y-109395594D01*
X181209582Y-109581451D01*
X181199500Y-109694863D01*
X181199500Y-114305136D01*
X181209582Y-114418548D01*
X181262762Y-114604405D01*
X181293622Y-114663483D01*
X181352266Y-114775751D01*
X181396432Y-114829916D01*
X181474428Y-114925571D01*
X181557853Y-114993595D01*
X181567739Y-115008010D01*
X181581348Y-115018977D01*
X181587088Y-115036224D01*
X181597370Y-115051216D01*
X181597893Y-115068687D01*
X181603413Y-115085271D01*
X181598917Y-115102883D01*
X181599462Y-115121055D01*
X181590456Y-115136035D01*
X181586134Y-115152971D01*
X181572829Y-115165357D01*
X181563464Y-115180937D01*
X181547788Y-115188671D01*
X181534996Y-115200581D01*
X181517108Y-115203808D01*
X181500805Y-115211852D01*
X181483261Y-115209914D01*
X181466237Y-115212986D01*
X181432039Y-115204258D01*
X181385160Y-115184840D01*
X181372632Y-115178807D01*
X181119869Y-115039109D01*
X181108095Y-115031711D01*
X180872563Y-114864593D01*
X180861691Y-114855923D01*
X180646350Y-114663483D01*
X180636517Y-114653650D01*
X180444072Y-114438304D01*
X180435416Y-114427449D01*
X180268283Y-114191898D01*
X180260893Y-114180137D01*
X180260889Y-114180130D01*
X180121188Y-113927361D01*
X180115162Y-113914847D01*
X180004641Y-113648026D01*
X180000051Y-113634907D01*
X179920096Y-113357378D01*
X179917005Y-113343832D01*
X179868629Y-113059115D01*
X179867073Y-113045306D01*
X179850685Y-112753490D01*
X179850490Y-112746537D01*
X179850490Y-111202846D01*
X179850489Y-111202828D01*
X179850489Y-111077034D01*
X179850489Y-111077030D01*
X179814328Y-110732982D01*
X179742402Y-110394599D01*
X179635500Y-110065588D01*
X179494793Y-109749554D01*
X179389328Y-109566883D01*
X179321824Y-109449962D01*
X179321821Y-109449957D01*
X179118487Y-109170091D01*
X179118480Y-109170082D01*
X179023067Y-109064116D01*
X178887001Y-108913000D01*
X178748501Y-108788294D01*
X178629918Y-108681520D01*
X178629909Y-108681513D01*
X178350043Y-108478179D01*
X178350038Y-108478176D01*
X178050453Y-108305211D01*
X178050447Y-108305208D01*
X178050445Y-108305207D01*
X177734413Y-108164500D01*
X177734408Y-108164498D01*
X177734405Y-108164497D01*
X177546184Y-108103340D01*
X177405402Y-108057598D01*
X177405399Y-108057597D01*
X177405398Y-108057597D01*
X177405397Y-108057596D01*
X177113645Y-107995582D01*
X177067019Y-107985672D01*
X176722971Y-107949511D01*
X176722966Y-107949511D01*
X118152426Y-107949511D01*
X118085387Y-107929826D01*
X118039632Y-107877022D01*
X118029688Y-107807864D01*
X118057803Y-107745370D01*
X118114178Y-107678808D01*
X118184533Y-107595740D01*
X118307582Y-107389238D01*
X118394963Y-107165299D01*
X118444294Y-106930031D01*
X118450500Y-106830069D01*
X118450499Y-103169932D01*
X118444294Y-103069969D01*
X118394963Y-102834701D01*
X118394961Y-102834696D01*
X118394959Y-102834689D01*
X118307583Y-102610765D01*
X118307582Y-102610762D01*
X118184533Y-102404260D01*
X118184531Y-102404258D01*
X118184529Y-102404254D01*
X118029173Y-102220826D01*
X117845745Y-102065470D01*
X117818944Y-102049500D01*
X117639238Y-101942418D01*
X117639236Y-101942417D01*
X117639234Y-101942416D01*
X117415310Y-101855040D01*
X117415300Y-101855037D01*
X117180032Y-101805706D01*
X117180029Y-101805705D01*
X117092479Y-101800270D01*
X117080069Y-101799500D01*
X117080067Y-101799500D01*
X115419944Y-101799500D01*
X115419921Y-101799501D01*
X115319968Y-101805706D01*
X115084699Y-101855037D01*
X115084689Y-101855040D01*
X114860765Y-101942416D01*
X114654254Y-102065470D01*
X114470826Y-102220826D01*
X114315470Y-102404254D01*
X114192416Y-102610765D01*
X114105040Y-102834689D01*
X114105037Y-102834699D01*
X114055706Y-103069967D01*
X114055705Y-103069970D01*
X114049500Y-103169922D01*
X114049500Y-106830055D01*
X114049501Y-106830078D01*
X114055706Y-106930031D01*
X114105037Y-107165300D01*
X114105040Y-107165310D01*
X114182803Y-107364597D01*
X114192418Y-107389238D01*
X114310260Y-107587002D01*
X114315468Y-107595741D01*
X114442197Y-107745370D01*
X114470503Y-107809249D01*
X114459780Y-107878291D01*
X114413433Y-107930576D01*
X114347574Y-107949511D01*
X94253482Y-107949511D01*
X94246529Y-107949316D01*
X93954702Y-107932927D01*
X93940884Y-107931370D01*
X93656170Y-107882995D01*
X93642613Y-107879901D01*
X93365097Y-107799950D01*
X93351973Y-107795357D01*
X93085162Y-107684841D01*
X93072633Y-107678808D01*
X92906522Y-107587002D01*
X92819858Y-107539104D01*
X92808093Y-107531711D01*
X92572564Y-107364594D01*
X92561696Y-107355928D01*
X92348394Y-107165310D01*
X92346348Y-107163481D01*
X92336517Y-107153650D01*
X92144072Y-106938304D01*
X92135406Y-106927436D01*
X91968286Y-106691902D01*
X91960899Y-106680147D01*
X91821188Y-106427360D01*
X91815162Y-106414846D01*
X91704637Y-106148014D01*
X91700054Y-106134917D01*
X91620097Y-105857385D01*
X91617004Y-105843830D01*
X91607332Y-105786902D01*
X91568627Y-105559105D01*
X91567073Y-105545305D01*
X91550685Y-105253488D01*
X91550490Y-105246536D01*
X91550490Y-102944863D01*
X93749500Y-102944863D01*
X93749500Y-105555136D01*
X93759582Y-105668548D01*
X93759582Y-105668551D01*
X93759583Y-105668552D01*
X93768537Y-105699845D01*
X93812762Y-105854405D01*
X93812763Y-105854406D01*
X93902266Y-106025751D01*
X93949518Y-106083700D01*
X94024428Y-106175571D01*
X94099339Y-106236652D01*
X94174249Y-106297734D01*
X94345594Y-106387237D01*
X94531448Y-106440417D01*
X94644862Y-106450500D01*
X94644870Y-106450500D01*
X99255130Y-106450500D01*
X99255138Y-106450500D01*
X99368552Y-106440417D01*
X99554406Y-106387237D01*
X99725751Y-106297734D01*
X99875571Y-106175571D01*
X99997734Y-106025751D01*
X100087237Y-105854406D01*
X100140417Y-105668552D01*
X100150500Y-105555138D01*
X100150500Y-102944862D01*
X100140417Y-102831448D01*
X100087237Y-102645594D01*
X99997734Y-102474249D01*
X99936652Y-102399339D01*
X99875571Y-102324428D01*
X99748514Y-102220827D01*
X99725751Y-102202266D01*
X99711082Y-102194604D01*
X99554405Y-102112762D01*
X99389115Y-102065467D01*
X99368552Y-102059583D01*
X99368551Y-102059582D01*
X99368548Y-102059582D01*
X99279662Y-102051680D01*
X99255138Y-102049500D01*
X94644862Y-102049500D01*
X94632599Y-102050590D01*
X94531451Y-102059582D01*
X94345594Y-102112762D01*
X94174250Y-102202265D01*
X94024428Y-102324428D01*
X93902265Y-102474250D01*
X93812762Y-102645594D01*
X93759582Y-102831451D01*
X93749500Y-102944863D01*
X91550490Y-102944863D01*
X91550490Y-96253481D01*
X91550685Y-96246528D01*
X91567074Y-95954691D01*
X91568181Y-95944863D01*
X93749500Y-95944863D01*
X93749500Y-98555136D01*
X93759582Y-98668548D01*
X93812762Y-98854405D01*
X93812763Y-98854406D01*
X93902266Y-99025751D01*
X93949518Y-99083700D01*
X94024428Y-99175571D01*
X94099339Y-99236652D01*
X94174249Y-99297734D01*
X94345594Y-99387237D01*
X94531448Y-99440417D01*
X94644862Y-99450500D01*
X94644870Y-99450500D01*
X99255130Y-99450500D01*
X99255138Y-99450500D01*
X99368552Y-99440417D01*
X99554406Y-99387237D01*
X99725751Y-99297734D01*
X99875571Y-99175571D01*
X99997734Y-99025751D01*
X100087237Y-98854406D01*
X100140417Y-98668552D01*
X100150500Y-98555138D01*
X100150500Y-95944862D01*
X100140417Y-95831448D01*
X100087237Y-95645594D01*
X99997734Y-95474249D01*
X99928246Y-95389029D01*
X99875571Y-95324428D01*
X99783700Y-95249518D01*
X99725751Y-95202266D01*
X99669820Y-95173050D01*
X99554405Y-95112762D01*
X99389538Y-95065588D01*
X99368552Y-95059583D01*
X99368551Y-95059582D01*
X99368548Y-95059582D01*
X99279662Y-95051680D01*
X99255138Y-95049500D01*
X94644862Y-95049500D01*
X94632599Y-95050590D01*
X94531451Y-95059582D01*
X94345594Y-95112762D01*
X94174250Y-95202265D01*
X94024428Y-95324428D01*
X93902265Y-95474250D01*
X93812762Y-95645594D01*
X93759582Y-95831451D01*
X93749500Y-95944863D01*
X91568181Y-95944863D01*
X91568626Y-95940909D01*
X91617006Y-95656166D01*
X91620099Y-95642614D01*
X91620100Y-95642613D01*
X91700051Y-95365094D01*
X91704643Y-95351974D01*
X91726234Y-95299845D01*
X91815162Y-95085153D01*
X91821192Y-95072634D01*
X91960899Y-94819854D01*
X91968277Y-94808111D01*
X92135422Y-94572543D01*
X92144060Y-94561711D01*
X92336528Y-94346338D01*
X92346339Y-94336527D01*
X92561699Y-94144069D01*
X92572557Y-94135412D01*
X92808100Y-93968285D01*
X92819868Y-93960892D01*
X92839155Y-93950232D01*
X93072640Y-93821188D01*
X93085158Y-93815161D01*
X93302189Y-93725263D01*
X93351973Y-93704643D01*
X93365093Y-93700051D01*
X93642618Y-93620097D01*
X93656165Y-93617006D01*
X93940896Y-93568628D01*
X93954692Y-93567074D01*
X94214212Y-93552499D01*
X94246512Y-93550686D01*
X94253464Y-93550491D01*
X176597156Y-93550491D01*
X176597172Y-93550490D01*
X176722966Y-93550490D01*
X176722971Y-93550490D01*
X177067019Y-93514329D01*
X177405402Y-93442403D01*
X177734413Y-93335501D01*
X178050447Y-93194794D01*
X178350042Y-93021822D01*
X178629915Y-92818482D01*
X178887001Y-92587002D01*
X179118482Y-92329916D01*
X179321822Y-92050043D01*
X179494793Y-91750448D01*
X179635501Y-91434414D01*
X179742403Y-91105403D01*
X179814329Y-90767020D01*
X179850490Y-90422972D01*
X179850490Y-90250001D01*
X179850490Y-90202408D01*
X179850490Y-88753481D01*
X179850685Y-88746528D01*
X179852712Y-88710437D01*
X179867074Y-88454691D01*
X179868628Y-88440897D01*
X179917006Y-88156165D01*
X179920099Y-88142613D01*
X180000050Y-87865097D01*
X180004643Y-87851973D01*
X180025263Y-87802189D01*
X180115162Y-87585154D01*
X180121192Y-87572634D01*
X180260894Y-87319863D01*
X180268288Y-87308096D01*
X180309826Y-87249554D01*
X180435414Y-87072553D01*
X180444072Y-87061697D01*
X180636527Y-86846339D01*
X180646339Y-86836527D01*
X180861699Y-86644069D01*
X180872557Y-86635412D01*
X181108100Y-86468285D01*
X181119863Y-86460894D01*
X181372646Y-86321185D01*
X181385145Y-86315166D01*
X181432040Y-86295742D01*
X181501505Y-86288274D01*
X181563984Y-86319549D01*
X181599637Y-86379637D01*
X181597144Y-86449462D01*
X181557851Y-86506405D01*
X181474429Y-86574428D01*
X181352265Y-86724250D01*
X181262762Y-86895594D01*
X181209582Y-87081451D01*
X181199500Y-87194863D01*
X181199500Y-91805136D01*
X181209582Y-91918548D01*
X181262762Y-92104405D01*
X181262763Y-92104406D01*
X181352266Y-92275751D01*
X181396427Y-92329910D01*
X181474428Y-92425571D01*
X181549339Y-92486652D01*
X181624249Y-92547734D01*
X181795594Y-92637237D01*
X181981448Y-92690417D01*
X182094862Y-92700500D01*
X182094870Y-92700500D01*
X184705130Y-92700500D01*
X184705138Y-92700500D01*
X184818552Y-92690417D01*
X185004406Y-92637237D01*
X185175751Y-92547734D01*
X185325571Y-92425571D01*
X185447734Y-92275751D01*
X185537237Y-92104406D01*
X185590417Y-91918552D01*
X185600500Y-91805138D01*
X185600500Y-87194862D01*
X185590417Y-87081448D01*
X185537237Y-86895594D01*
X185447734Y-86724249D01*
X185378579Y-86639438D01*
X185325571Y-86574428D01*
X185211023Y-86481027D01*
X185175751Y-86452266D01*
X185100578Y-86412999D01*
X185004405Y-86362762D01*
X184838046Y-86315161D01*
X184818552Y-86309583D01*
X184818551Y-86309582D01*
X184818548Y-86309582D01*
X184729662Y-86301680D01*
X184705138Y-86299500D01*
X182535496Y-86299500D01*
X182505181Y-86290598D01*
X182474411Y-86283410D01*
X182471906Y-86280827D01*
X182468457Y-86279815D01*
X182447774Y-86255945D01*
X182425767Y-86233255D01*
X182425056Y-86229727D01*
X182422702Y-86227011D01*
X182418205Y-86195740D01*
X182411962Y-86164763D01*
X182413269Y-86161413D01*
X182412758Y-86157853D01*
X182425885Y-86129108D01*
X182437377Y-86099680D01*
X182440288Y-86097569D01*
X182441783Y-86094297D01*
X182468367Y-86077212D01*
X182493945Y-86058669D01*
X182498719Y-86057706D01*
X182500561Y-86056523D01*
X182528543Y-86051695D01*
X182546510Y-86050686D01*
X182553463Y-86050491D01*
X182597593Y-86050491D01*
X191202407Y-86050491D01*
X191246519Y-86050491D01*
X191253472Y-86050686D01*
G37*
G04 #@! TD.AperFunction*
M02*
