%TF.GenerationSoftware,KiCad,Pcbnew,9.0.0*%
%TF.CreationDate,2025-03-27T20:29:22-05:00*%
%TF.ProjectId,PD_Board_v2,50445f42-6f61-4726-945f-76322e6b6963,rev?*%
%TF.SameCoordinates,Original*%
%TF.FileFunction,Drillmap*%
%TF.FilePolarity,Positive*%
%FSLAX45Y45*%
G04 Gerber Fmt 4.5, Leading zero omitted, Abs format (unit mm)*
G04 Created by KiCad (PCBNEW 9.0.0) date 2025-03-27 20:29:22*
%MOMM*%
%LPD*%
G01*
G04 APERTURE LIST*
%ADD10C,0.200000*%
G04 APERTURE END LIST*
D10*
X19725000Y-9325000D02*
X20625000Y-9325000D01*
X17955000Y-11125000D02*
X17955000Y-11275000D01*
X19425000Y-9025000D02*
X19425000Y-8875000D01*
X20925000Y-9625000D02*
X20925000Y-10525000D01*
X17655000Y-10825000D02*
X9425000Y-10825000D01*
X19425000Y-11125000D02*
G75*
G02*
X19725000Y-10825000I300000J0D01*
G01*
X9125000Y-9625000D02*
G75*
G02*
X9425000Y-9325000I300000J0D01*
G01*
X19125000Y-8575000D02*
G75*
G02*
X19425000Y-8875000I0J-300000D01*
G01*
X9125000Y-10525000D02*
X9125000Y-9625000D01*
X20625000Y-10825000D02*
X19725000Y-10825000D01*
X17955000Y-8875000D02*
X17955000Y-9025000D01*
X17955000Y-8875000D02*
G75*
G02*
X18255000Y-8575000I300000J0D01*
G01*
X9425000Y-10825000D02*
G75*
G02*
X9125000Y-10525000I0J300000D01*
G01*
X19425000Y-11125000D02*
X19425000Y-11275000D01*
X19725000Y-9325000D02*
G75*
G02*
X19425000Y-9025000I0J300000D01*
G01*
X20625000Y-9325000D02*
G75*
G02*
X20925000Y-9625000I0J-300000D01*
G01*
X17955000Y-9025000D02*
G75*
G02*
X17655000Y-9325000I-300000J0D01*
G01*
X19425000Y-11275000D02*
G75*
G02*
X19125000Y-11575000I-300000J0D01*
G01*
X20925000Y-10525000D02*
G75*
G02*
X20625000Y-10825000I-300000J0D01*
G01*
X9425000Y-9325000D02*
X17655000Y-9325000D01*
X17655000Y-10825000D02*
G75*
G02*
X17955000Y-11125000I0J-300000D01*
G01*
X19125000Y-8575000D02*
X18255000Y-8575000D01*
X18255000Y-11575000D02*
G75*
G02*
X17955000Y-11275000I0J300000D01*
G01*
X19125000Y-11575000D02*
X18255000Y-11575000D01*
X9375777Y-11896484D02*
X9375777Y-11696484D01*
X9375777Y-11696484D02*
X9423396Y-11696484D01*
X9423396Y-11696484D02*
X9451967Y-11706008D01*
X9451967Y-11706008D02*
X9471015Y-11725055D01*
X9471015Y-11725055D02*
X9480539Y-11744103D01*
X9480539Y-11744103D02*
X9490063Y-11782198D01*
X9490063Y-11782198D02*
X9490063Y-11810770D01*
X9490063Y-11810770D02*
X9480539Y-11848865D01*
X9480539Y-11848865D02*
X9471015Y-11867912D01*
X9471015Y-11867912D02*
X9451967Y-11886960D01*
X9451967Y-11886960D02*
X9423396Y-11896484D01*
X9423396Y-11896484D02*
X9375777Y-11896484D01*
X9575777Y-11896484D02*
X9575777Y-11763150D01*
X9575777Y-11801246D02*
X9585301Y-11782198D01*
X9585301Y-11782198D02*
X9594824Y-11772674D01*
X9594824Y-11772674D02*
X9613872Y-11763150D01*
X9613872Y-11763150D02*
X9632920Y-11763150D01*
X9699586Y-11896484D02*
X9699586Y-11763150D01*
X9699586Y-11696484D02*
X9690063Y-11706008D01*
X9690063Y-11706008D02*
X9699586Y-11715531D01*
X9699586Y-11715531D02*
X9709110Y-11706008D01*
X9709110Y-11706008D02*
X9699586Y-11696484D01*
X9699586Y-11696484D02*
X9699586Y-11715531D01*
X9823396Y-11896484D02*
X9804348Y-11886960D01*
X9804348Y-11886960D02*
X9794824Y-11867912D01*
X9794824Y-11867912D02*
X9794824Y-11696484D01*
X9928158Y-11896484D02*
X9909110Y-11886960D01*
X9909110Y-11886960D02*
X9899586Y-11867912D01*
X9899586Y-11867912D02*
X9899586Y-11696484D01*
X10156729Y-11896484D02*
X10156729Y-11696484D01*
X10156729Y-11696484D02*
X10223396Y-11839341D01*
X10223396Y-11839341D02*
X10290063Y-11696484D01*
X10290063Y-11696484D02*
X10290063Y-11896484D01*
X10471015Y-11896484D02*
X10471015Y-11791722D01*
X10471015Y-11791722D02*
X10461491Y-11772674D01*
X10461491Y-11772674D02*
X10442444Y-11763150D01*
X10442444Y-11763150D02*
X10404348Y-11763150D01*
X10404348Y-11763150D02*
X10385301Y-11772674D01*
X10471015Y-11886960D02*
X10451967Y-11896484D01*
X10451967Y-11896484D02*
X10404348Y-11896484D01*
X10404348Y-11896484D02*
X10385301Y-11886960D01*
X10385301Y-11886960D02*
X10375777Y-11867912D01*
X10375777Y-11867912D02*
X10375777Y-11848865D01*
X10375777Y-11848865D02*
X10385301Y-11829817D01*
X10385301Y-11829817D02*
X10404348Y-11820293D01*
X10404348Y-11820293D02*
X10451967Y-11820293D01*
X10451967Y-11820293D02*
X10471015Y-11810770D01*
X10566253Y-11763150D02*
X10566253Y-11963150D01*
X10566253Y-11772674D02*
X10585301Y-11763150D01*
X10585301Y-11763150D02*
X10623396Y-11763150D01*
X10623396Y-11763150D02*
X10642444Y-11772674D01*
X10642444Y-11772674D02*
X10651967Y-11782198D01*
X10651967Y-11782198D02*
X10661491Y-11801246D01*
X10661491Y-11801246D02*
X10661491Y-11858389D01*
X10661491Y-11858389D02*
X10651967Y-11877436D01*
X10651967Y-11877436D02*
X10642444Y-11886960D01*
X10642444Y-11886960D02*
X10623396Y-11896484D01*
X10623396Y-11896484D02*
X10585301Y-11896484D01*
X10585301Y-11896484D02*
X10566253Y-11886960D01*
X10747205Y-11877436D02*
X10756729Y-11886960D01*
X10756729Y-11886960D02*
X10747205Y-11896484D01*
X10747205Y-11896484D02*
X10737682Y-11886960D01*
X10737682Y-11886960D02*
X10747205Y-11877436D01*
X10747205Y-11877436D02*
X10747205Y-11896484D01*
X10747205Y-11772674D02*
X10756729Y-11782198D01*
X10756729Y-11782198D02*
X10747205Y-11791722D01*
X10747205Y-11791722D02*
X10737682Y-11782198D01*
X10737682Y-11782198D02*
X10747205Y-11772674D01*
X10747205Y-11772674D02*
X10747205Y-11791722D01*
M02*
