%TF.GenerationSoftware,KiCad,Pcbnew,9.0.6*%
%TF.CreationDate,2025-11-04T19:27:02-06:00*%
%TF.ProjectId,PD_Board_v3,50445f42-6f61-4726-945f-76332e6b6963,rev?*%
%TF.SameCoordinates,Original*%
%TF.FileFunction,Soldermask,Top*%
%TF.FilePolarity,Negative*%
%FSLAX46Y46*%
G04 Gerber Fmt 4.6, Leading zero omitted, Abs format (unit mm)*
G04 Created by KiCad (PCBNEW 9.0.6) date 2025-11-04 19:27:02*
%MOMM*%
%LPD*%
G01*
G04 APERTURE LIST*
G04 Aperture macros list*
%AMRoundRect*
0 Rectangle with rounded corners*
0 $1 Rounding radius*
0 $2 $3 $4 $5 $6 $7 $8 $9 X,Y pos of 4 corners*
0 Add a 4 corners polygon primitive as box body*
4,1,4,$2,$3,$4,$5,$6,$7,$8,$9,$2,$3,0*
0 Add four circle primitives for the rounded corners*
1,1,$1+$1,$2,$3*
1,1,$1+$1,$4,$5*
1,1,$1+$1,$6,$7*
1,1,$1+$1,$8,$9*
0 Add four rect primitives between the rounded corners*
20,1,$1+$1,$2,$3,$4,$5,0*
20,1,$1+$1,$4,$5,$6,$7,0*
20,1,$1+$1,$6,$7,$8,$9,0*
20,1,$1+$1,$8,$9,$2,$3,0*%
G04 Aperture macros list end*
%ADD10C,0.100000*%
%ADD11RoundRect,0.250000X-0.450000X0.350000X-0.450000X-0.350000X0.450000X-0.350000X0.450000X0.350000X0*%
%ADD12RoundRect,0.511413X-1.193298X-1.239257X1.193298X-1.239257X1.193298X1.239257X-1.193298X1.239257X0*%
%ADD13RoundRect,0.519917X-1.213138X-1.247688X1.213138X-1.247688X1.213138X1.247688X-1.213138X1.247688X0*%
%ADD14RoundRect,0.197827X-0.461597X-0.989841X0.461597X-0.989841X0.461597X0.989841X-0.461597X0.989841X0*%
%ADD15RoundRect,0.250000X-2.250000X-1.250000X2.250000X-1.250000X2.250000X1.250000X-2.250000X1.250000X0*%
%ADD16C,3.500000*%
%ADD17RoundRect,0.237500X-0.300000X-0.237500X0.300000X-0.237500X0.300000X0.237500X-0.300000X0.237500X0*%
%ADD18RoundRect,0.250000X-0.337500X-0.475000X0.337500X-0.475000X0.337500X0.475000X-0.337500X0.475000X0*%
%ADD19RoundRect,0.150000X-0.512500X-0.150000X0.512500X-0.150000X0.512500X0.150000X-0.512500X0.150000X0*%
%ADD20R,1.700000X1.700000*%
%ADD21C,1.700000*%
%ADD22RoundRect,0.250000X0.475000X-0.337500X0.475000X0.337500X-0.475000X0.337500X-0.475000X-0.337500X0*%
%ADD23RoundRect,0.750000X-1.750000X-0.750000X1.750000X-0.750000X1.750000X0.750000X-1.750000X0.750000X0*%
%ADD24RoundRect,0.250000X1.250000X-2.250000X1.250000X2.250000X-1.250000X2.250000X-1.250000X-2.250000X0*%
%ADD25RoundRect,0.250000X0.412500X1.100000X-0.412500X1.100000X-0.412500X-1.100000X0.412500X-1.100000X0*%
%ADD26C,8.000000*%
%ADD27RoundRect,0.477900X-1.998600X1.115100X-1.998600X-1.115100X1.998600X-1.115100X1.998600X1.115100X0*%
%ADD28RoundRect,0.250000X0.450000X-0.350000X0.450000X0.350000X-0.450000X0.350000X-0.450000X-0.350000X0*%
G04 APERTURE END LIST*
D10*
X133500000Y-57000000D02*
X137000000Y-57000000D01*
X137000000Y-84000000D01*
X133500000Y-84000000D01*
X133500000Y-57000000D01*
G36*
X133500000Y-57000000D02*
G01*
X137000000Y-57000000D01*
X137000000Y-84000000D01*
X133500000Y-84000000D01*
X133500000Y-57000000D01*
G37*
D11*
%TO.C,R3*%
X158000000Y-60500000D03*
X158000000Y-62500000D03*
%TD*%
D12*
%TO.C,E1*%
X132500000Y-88000000D03*
D13*
X136500000Y-88000000D03*
D14*
X148000000Y-88500000D03*
X150000000Y-88500000D03*
X152000000Y-88500000D03*
X154000000Y-88500000D03*
D15*
X126000000Y-100500000D03*
X126000000Y-104000000D03*
X126000000Y-107500000D03*
X161000000Y-100500000D03*
X161000000Y-104000000D03*
X161000000Y-107500000D03*
%TD*%
%TO.C,J7*%
X156500000Y-68000000D03*
X156500000Y-71500000D03*
X156500000Y-75000000D03*
%TD*%
D16*
%TO.C,H3*%
X158000000Y-83000000D03*
%TD*%
%TO.C,H1*%
X158000000Y-51797400D03*
%TD*%
D17*
%TO.C,C2*%
X151275000Y-53000000D03*
X153000000Y-53000000D03*
%TD*%
D11*
%TO.C,R1*%
X158000000Y-56500000D03*
X158000000Y-58500000D03*
%TD*%
D18*
%TO.C,C5*%
X147425000Y-69500000D03*
X149500000Y-69500000D03*
%TD*%
D19*
%TO.C,U1*%
X150862500Y-56050000D03*
X150862500Y-57000000D03*
X150862500Y-57950000D03*
X153137500Y-57950000D03*
X153137500Y-57000000D03*
X153137500Y-56050000D03*
%TD*%
D20*
%TO.C,J5*%
X152040000Y-72500000D03*
D21*
X149500000Y-72500000D03*
X146960000Y-72500000D03*
X144420000Y-72500000D03*
X141880000Y-72500000D03*
X139340000Y-72500000D03*
X152040000Y-75040000D03*
X149500000Y-75040000D03*
X146960000Y-75040000D03*
X144420000Y-75040000D03*
X141880000Y-75040000D03*
X139340000Y-75040000D03*
%TD*%
D22*
%TO.C,C1*%
X151000000Y-62500000D03*
X151000000Y-60425000D03*
%TD*%
D17*
%TO.C,C6*%
X151275000Y-54500000D03*
X153000000Y-54500000D03*
%TD*%
D23*
%TO.C,J2*%
X129000000Y-68000000D03*
X129000000Y-73000000D03*
%TD*%
D18*
%TO.C,C3*%
X151100000Y-51020000D03*
X153175000Y-51020000D03*
%TD*%
D24*
%TO.C,J1*%
X140000000Y-51000000D03*
X143500000Y-51000000D03*
X147000000Y-51000000D03*
%TD*%
D16*
%TO.C,H4*%
X129000000Y-83000000D03*
%TD*%
D25*
%TO.C,C4*%
X145500000Y-69000000D03*
X142375000Y-69000000D03*
%TD*%
D26*
%TO.C,J3*%
X130000000Y-53000000D03*
%TD*%
D27*
%TO.C,L1*%
X144500000Y-56472000D03*
X144500000Y-65500000D03*
%TD*%
D28*
%TO.C,R2*%
X153500000Y-62500000D03*
X153500000Y-60500000D03*
%TD*%
D11*
%TO.C,R4*%
X155500000Y-60500000D03*
X155500000Y-62500000D03*
%TD*%
M02*
