%TF.GenerationSoftware,KiCad,Pcbnew,9.0.6*%
%TF.CreationDate,2025-11-04T19:28:31-06:00*%
%TF.ProjectId,PD_Board_v3,50445f42-6f61-4726-945f-76332e6b6963,rev?*%
%TF.SameCoordinates,Original*%
%TF.FileFunction,Profile,NP*%
%FSLAX46Y46*%
G04 Gerber Fmt 4.6, Leading zero omitted, Abs format (unit mm)*
G04 Created by KiCad (PCBNEW 9.0.6) date 2025-11-04 19:28:31*
%MOMM*%
%LPD*%
G01*
G04 APERTURE LIST*
%TA.AperFunction,Profile*%
%ADD10C,0.200000*%
%TD*%
%TA.AperFunction,Profile*%
%ADD11C,0.100000*%
%TD*%
G04 APERTURE END LIST*
D10*
X163400002Y-87700001D02*
G75*
G02*
X162000001Y-83500001I5599998J4200001D01*
G01*
X166000002Y-105750001D02*
G75*
G02*
X162000002Y-109750002I-4000002J1D01*
G01*
X125000002Y-109750001D02*
G75*
G02*
X120999999Y-105750002I-2J4000001D01*
G01*
X166000002Y-93500001D02*
X166000002Y-105750001D01*
X158000002Y-47797439D02*
G75*
G02*
X161999961Y-51797441I-2J-3999961D01*
G01*
X121000002Y-93500002D02*
G75*
G02*
X122400003Y-89300000I6999998J2D01*
G01*
X129400002Y-89550001D02*
X129400002Y-109750001D01*
X125000002Y-83500000D02*
G75*
G02*
X123600001Y-87700002I-7000002J0D01*
G01*
X125000002Y-51797439D02*
G75*
G02*
X129000001Y-47797402I3999998J39D01*
G01*
X163400002Y-87700001D02*
X164600002Y-89300001D01*
X157600002Y-89550001D02*
X157600002Y-109750001D01*
X123600001Y-87700002D02*
X122400003Y-89300000D01*
X125000002Y-109750001D02*
X129400002Y-109750001D01*
X158000002Y-47797439D02*
X129000001Y-47797439D01*
X162000002Y-109750001D02*
X157600002Y-109750001D01*
X121000002Y-93500002D02*
X121000002Y-105750002D01*
X162000002Y-51797441D02*
X162000002Y-83500001D01*
X129400002Y-89550001D02*
X157600002Y-89550001D01*
X162000004Y-51797441D02*
X162000002Y-51797441D01*
X125000002Y-51797439D02*
X125000002Y-83500000D01*
X164600002Y-89300001D02*
G75*
G02*
X166000001Y-93500001I-5600002J-4199999D01*
G01*
D11*
%TO.C,J3*%
X132200000Y-53000000D02*
G75*
G02*
X128000000Y-53000000I-2100000J0D01*
G01*
X128000000Y-53000000D02*
G75*
G02*
X132200000Y-53000000I2100000J0D01*
G01*
%TD*%
M02*
