M48
; DRILL file {KiCad 9.0.6} date 2025-11-04T19:28:20-0600
; FORMAT={-:-/ absolute / metric / decimal}
; #@! TF.CreationDate,2025-11-04T19:28:20-06:00
; #@! TF.GenerationSoftware,Kicad,Pcbnew,9.0.6
; #@! TF.FileFunction,Plated,1,4,PTH
FMAT,2
METRIC
; #@! TA.AperFunction,Plated,PTH,ViaDrill
T1C0.300
; #@! TA.AperFunction,Plated,PTH,ViaDrill
T2C0.500
; #@! TA.AperFunction,Plated,PTH,ComponentDrill
T3C1.000
; #@! TA.AperFunction,Plated,PTH,ComponentDrill
T4C2.000
; #@! TA.AperFunction,Plated,PTH,ComponentDrill
T5C2.500
%
G90
G05
T1
X127.5Y-57.0
X127.5Y-59.5
X127.5Y-62.5
X127.5Y-65.5
X130.5Y-59.5
X130.5Y-62.5
X130.5Y-65.5
X148.5Y-64.5
X148.5Y-66.0
X150.5Y-59.0
X150.5Y-64.5
X150.5Y-66.0
X152.5Y-64.5
X152.5Y-66.0
X152.5Y-67.5
X152.5Y-69.0
X153.175Y-49.595
X153.5Y-59.0
X154.5Y-57.0
X154.5Y-64.5
X154.5Y-66.0
X156.5Y-57.0
X156.5Y-64.5
X156.5Y-66.0
X158.5Y-64.5
X158.5Y-66.0
X159.5Y-62.5
T2
X140.5Y-69.0
X149.5Y-68.0
T3
X139.34Y-72.5
X139.34Y-75.04
X141.88Y-72.5
X141.88Y-75.04
X144.42Y-72.5
X144.42Y-75.04
X146.96Y-72.5
X146.96Y-75.04
X148.0Y-88.5
X149.5Y-72.5
X149.5Y-75.04
X150.0Y-88.5
X152.0Y-88.5
X152.04Y-72.5
X152.04Y-75.04
X154.0Y-88.5
T4
X132.5Y-88.0
X136.5Y-88.0
T5
X126.0Y-100.5
X126.0Y-104.0
X126.0Y-107.5
X129.0Y-68.0
X129.0Y-73.0
X140.0Y-51.0
X143.5Y-51.0
X147.0Y-51.0
X156.5Y-68.0
X156.5Y-71.5
X156.5Y-75.0
X161.0Y-100.5
X161.0Y-104.0
X161.0Y-107.5
M30
